<?xml version="1.0" encoding="utf-8"?>
<!-- Generator: Adobe Illustrator 27.5.0, SVG Export Plug-In . SVG Version: 6.00 Build 0)  -->
<svg version="1.1" xmlns="http://www.w3.org/2000/svg" xmlns:xlink="http://www.w3.org/1999/xlink" x="0px" y="0px"
	 viewBox="0 0 750 500" style="enable-background:new 0 0 750 500;" xml:space="preserve">
<g id="BACKGROUND">
	<rect style="fill:#FFFFFF;" width="750" height="500"/>
</g>
<g id="OBJECTS">
	<g>
		<g>
			<g>
				<g>
					<path style="fill:#672ED6;" d="M298.13,426.687l2.905,2.904c1.56-1.56,3.634-2.419,5.84-2.419c2.206,0,4.28,0.859,5.84,2.419
						l2.904-2.904c-2.336-2.336-5.442-3.623-8.745-3.623C303.571,423.064,300.465,424.351,298.13,426.687z"/>
					<path style="fill:#672ED6;" d="M293.312,421.869l2.904,2.905c2.847-2.847,6.632-4.415,10.659-4.415
						c4.026,0,7.811,1.568,10.659,4.415l2.904-2.905c-3.623-3.623-8.44-5.618-13.563-5.618
						C301.751,416.25,296.934,418.245,293.312,421.869z"/>
					<path style="fill:#672ED6;" d="M306.875,409.436c-6.944,0-13.471,2.704-18.381,7.614l2.905,2.905
						c4.134-4.134,9.63-6.411,15.477-6.411s11.342,2.277,15.477,6.411l2.905-2.905C320.346,412.14,313.818,409.436,306.875,409.436z
						"/>
					<path style="fill:#672ED6;" d="M306.875,429.591c-1.936,0-3.506,1.57-3.506,3.506c0,1.936,1.57,3.506,3.506,3.506
						c1.936,0,3.506-1.569,3.506-3.506C310.38,431.161,308.811,429.591,306.875,429.591z"/>
				</g>
				<g>
					<path style="fill:none;stroke:#672ED6;stroke-miterlimit:10;" d="M364.954,155.194l2.904,2.905
						c1.56-1.56,3.634-2.419,5.84-2.419c2.206,0,4.281,0.859,5.84,2.419l2.904-2.905c-2.335-2.336-5.442-3.623-8.745-3.623
						C370.396,151.571,367.29,152.858,364.954,155.194z"/>
					<path style="fill:none;stroke:#672ED6;stroke-miterlimit:10;" d="M360.136,150.376l2.905,2.905
						c2.847-2.847,6.632-4.415,10.658-4.415c4.026,0,7.812,1.568,10.659,4.415l2.905-2.905c-3.623-3.623-8.44-5.618-13.563-5.618
						C368.576,144.757,363.759,146.753,360.136,150.376z"/>
					<path style="fill:none;stroke:#672ED6;stroke-miterlimit:10;" d="M373.699,137.943c-6.944,0-13.471,2.704-18.381,7.614
						l2.904,2.905c4.134-4.134,9.63-6.411,15.477-6.411c5.846,0,11.342,2.277,15.477,6.411l2.904-2.905
						C387.171,140.647,380.643,137.943,373.699,137.943z"/>
					<circle style="fill:none;stroke:#672ED6;stroke-miterlimit:10;" cx="373.699" cy="161.604" r="3.506"/>
				</g>
				<g>
					
						<line style="fill:none;stroke:#672ED6;stroke-width:0.75;stroke-linecap:round;stroke-linejoin:round;stroke-miterlimit:10;" x1="425.936" y1="276.34" x2="425.936" y2="285.334"/>
					
						<line style="fill:none;stroke:#672ED6;stroke-width:0.75;stroke-linecap:round;stroke-linejoin:round;stroke-miterlimit:10;" x1="421.439" y1="280.837" x2="430.433" y2="280.837"/>
				</g>
				<g>
					
						<line style="fill:none;stroke:#DB7294;stroke-width:0.75;stroke-linecap:round;stroke-linejoin:round;stroke-miterlimit:10;" x1="101.918" y1="362.859" x2="101.918" y2="371.853"/>
					
						<line style="fill:none;stroke:#DB7294;stroke-width:0.75;stroke-linecap:round;stroke-linejoin:round;stroke-miterlimit:10;" x1="97.421" y1="367.356" x2="106.415" y2="367.356"/>
				</g>
				<g>
					
						<line style="fill:none;stroke:#DB7294;stroke-width:0.75;stroke-linecap:round;stroke-linejoin:round;stroke-miterlimit:10;" x1="178.02" y1="421.831" x2="178.02" y2="430.825"/>
					
						<line style="fill:none;stroke:#DB7294;stroke-width:0.75;stroke-linecap:round;stroke-linejoin:round;stroke-miterlimit:10;" x1="173.523" y1="426.328" x2="182.517" y2="426.328"/>
				</g>
				<g>
					
						<line style="fill:none;stroke:#DB7294;stroke-width:0.75;stroke-linecap:round;stroke-linejoin:round;stroke-miterlimit:10;" x1="700.544" y1="350.081" x2="700.544" y2="359.075"/>
					
						<line style="fill:none;stroke:#DB7294;stroke-width:0.75;stroke-linecap:round;stroke-linejoin:round;stroke-miterlimit:10;" x1="696.047" y1="354.578" x2="705.042" y2="354.578"/>
				</g>
				<g>
					
						<line style="fill:none;stroke:#DB7294;stroke-width:0.75;stroke-linecap:round;stroke-linejoin:round;stroke-miterlimit:10;" x1="295.296" y1="150.338" x2="295.296" y2="159.332"/>
					
						<line style="fill:none;stroke:#DB7294;stroke-width:0.75;stroke-linecap:round;stroke-linejoin:round;stroke-miterlimit:10;" x1="290.798" y1="154.835" x2="299.793" y2="154.835"/>
				</g>
				<g>
					
						<line style="fill:none;stroke:#672ED6;stroke-width:0.75;stroke-linecap:round;stroke-linejoin:round;stroke-miterlimit:10;" x1="110.327" y1="115.394" x2="110.327" y2="124.389"/>
					
						<line style="fill:none;stroke:#672ED6;stroke-width:0.75;stroke-linecap:round;stroke-linejoin:round;stroke-miterlimit:10;" x1="105.83" y1="119.891" x2="114.825" y2="119.891"/>
				</g>
				<g>
					
						<line style="fill:none;stroke:#EEDA36;stroke-width:0.75;stroke-linecap:round;stroke-linejoin:round;stroke-miterlimit:10;" x1="156.63" y1="268.641" x2="156.63" y2="277.635"/>
					
						<line style="fill:none;stroke:#EEDA36;stroke-width:0.75;stroke-linecap:round;stroke-linejoin:round;stroke-miterlimit:10;" x1="152.133" y1="273.138" x2="161.128" y2="273.138"/>
				</g>
				<g>
					
						<line style="fill:none;stroke:#EEDA36;stroke-width:0.75;stroke-linecap:round;stroke-linejoin:round;stroke-miterlimit:10;" x1="337.637" y1="383.413" x2="337.637" y2="392.407"/>
					
						<line style="fill:none;stroke:#EEDA36;stroke-width:0.75;stroke-linecap:round;stroke-linejoin:round;stroke-miterlimit:10;" x1="333.14" y1="387.91" x2="342.134" y2="387.91"/>
				</g>
				
					<circle style="fill:none;stroke:#EEDA36;stroke-width:0.75;stroke-linecap:round;stroke-linejoin:round;stroke-miterlimit:10;" cx="254.533" cy="153.255" r="3.091"/>
				<g>
					
						<ellipse transform="matrix(0.862 -0.5069 0.5069 0.862 -93.8642 383.0215)" style="fill:#D96980;" cx="656.469" cy="363.888" rx="19.859" ry="19.859"/>
					<g>
						<rect x="645.121" y="355.495" style="fill:none;stroke:#FFFFFF;stroke-miterlimit:10;" width="23.287" height="17.495"/>
						<polyline style="fill:none;stroke:#FFFFFF;stroke-miterlimit:10;" points="645.121,355.495 656.765,366.252 668.409,355.495 
													"/>
					</g>
				</g>
				<g>
					
						<ellipse transform="matrix(0.2898 -0.9571 0.9571 0.2898 -323.6173 384.7253)" style="fill:#E4B0C8;" cx="97.421" cy="410.417" rx="16.453" ry="16.453"/>
					<g>
						<rect x="88.019" y="403.464" style="fill:none;stroke:#FFFFFF;stroke-miterlimit:10;" width="19.293" height="14.495"/>
						<polyline style="fill:none;stroke:#FFFFFF;stroke-miterlimit:10;" points="88.019,403.464 97.665,412.376 107.312,403.464 
													"/>
					</g>
				</g>
				<g>
					<circle style="fill:#E4B0C8;" cx="279.399" cy="126.869" r="10.456"/>
					<g>
						<rect x="273.423" y="122.45" style="fill:none;stroke:#FFFFFF;stroke-miterlimit:10;" width="12.261" height="9.212"/>
						<polyline style="fill:none;stroke:#FFFFFF;stroke-miterlimit:10;" points="273.423,122.45 279.554,128.113 285.685,122.45 
													"/>
					</g>
				</g>
				<polygon style="fill:#D96980;" points="178.02,236.279 180.844,241.171 183.669,246.063 178.02,246.063 172.372,246.063 
					175.196,241.171 				"/>
				<polygon style="fill:none;stroke:#D96980;stroke-miterlimit:10;" points="421.839,379.498 428.285,385.157 434.731,390.817 
					426.607,393.569 418.483,396.322 420.161,387.91 				"/>
				<polygon style="fill:none;stroke:#D96980;stroke-miterlimit:10;" points="61.971,115.606 59.726,123.885 57.481,132.164 
					51.434,126.081 45.386,119.997 53.679,117.802 				"/>
				<polygon style="fill:none;stroke:#9E88E5;stroke-miterlimit:10;" points="700.533,397.634 698.586,404.813 696.64,411.993 
					691.395,406.717 686.151,401.441 693.342,399.538 				"/>
				<path style="fill:none;stroke:#D96980;stroke-miterlimit:10;" d="M242.225,404.814c0,2.553-2.07,4.623-4.623,4.623
					c-2.553,0-4.623-2.07-4.623-4.623c0-2.553,2.07-4.623,4.623-4.623C240.155,400.191,242.225,402.26,242.225,404.814z"/>
				<path style="fill:none;stroke:#D96980;stroke-miterlimit:10;" d="M407.993,104.673c0,3.601-2.919,6.521-6.521,6.521
					c-3.601,0-6.521-2.919-6.521-6.521c0-3.601,2.919-6.521,6.521-6.521C405.074,98.153,407.993,101.072,407.993,104.673z"/>
				<path style="fill:#D96980;" d="M278.788,280.318c0,2.289-1.855,4.144-4.144,4.144c-2.289,0-4.144-1.855-4.144-4.144
					c0-2.289,1.855-4.144,4.144-4.144C276.932,276.174,278.788,278.029,278.788,280.318z"/>
				<path style="fill:#D96980;" d="M412.137,425.766c0,2.289-1.855,4.144-4.144,4.144c-2.289,0-4.144-1.855-4.144-4.144
					c0-2.289,1.855-4.144,4.144-4.144C410.282,421.622,412.137,423.477,412.137,425.766z"/>
				<path style="fill:#E4B0C8;" d="M287.584,364.588c0,1.365-1.107,2.472-2.472,2.472c-1.365,0-2.472-1.107-2.472-2.472
					s1.107-2.472,2.472-2.472C286.477,362.116,287.584,363.223,287.584,364.588z"/>
				
					<ellipse transform="matrix(0.9232 -0.3844 0.3844 0.9232 -116.9243 266.5541)" style="fill:none;stroke:#D96980;stroke-miterlimit:10;" cx="608.329" cy="425.766" rx="7.331" ry="7.331"/>
				<circle style="fill:none;stroke:#672ED6;stroke-miterlimit:10;" cx="490.317" cy="295.59" r="6.427"/>
				<circle style="fill:none;stroke:#672ED6;stroke-miterlimit:10;" cx="65.411" cy="340.885" r="5.785"/>
				<path style="fill:#672ED6;" d="M676.836,291.693c0,2.764-2.24,5.004-5.004,5.004c-2.764,0-5.004-2.24-5.004-5.004
					c0-2.764,2.24-5.004,5.004-5.004C674.595,286.689,676.836,288.929,676.836,291.693z"/>
				<path style="fill:none;stroke:#672ED6;stroke-miterlimit:10;" d="M384.438,411.246c0,2.764-2.24,5.004-5.004,5.004
					c-2.764,0-5.004-2.24-5.004-5.004c0-2.764,2.24-5.004,5.004-5.004C382.197,406.242,384.438,408.483,384.438,411.246z"/>
				<path style="fill:none;stroke:#EEDA36;stroke-miterlimit:10;" d="M618.835,391.896c0,0,8.298-0.815,10.47,4.427
					c2.172,5.241,3.041,10.315,16.072,3.868"/>
				<path style="fill:none;stroke:#EEDA36;stroke-miterlimit:10;" d="M72.532,172.209c0,0-1.099,7.598-6.263,8.385
					c-5.164,0.787-9.891,0.447-6.998,13.517"/>
				<path style="fill:none;stroke:#EEDA36;stroke-miterlimit:10;" d="M325.256,107.191c0,0,8.298-0.814,10.47,4.427
					c2.172,5.241,3.041,10.315,16.072,3.868"/>
				<path style="fill:#EEDA36;" d="M365.305,225.582c0,2.069-1.677,3.747-3.747,3.747s-3.747-1.677-3.747-3.747
					c0-2.069,1.677-3.747,3.747-3.747S365.305,223.513,365.305,225.582z"/>
				<path style="fill:none;stroke:#D7D4FC;stroke-miterlimit:10;" d="M160.857,102.599c2.133-1.485,5.065-0.961,6.551,1.172
					c1.485,2.132,0.961,5.065-1.172,6.551c-2.133,1.485-5.065,0.961-6.551-1.172C158.199,107.018,158.724,104.085,160.857,102.599z"
					/>
			</g>
			<g>
				<path style="fill:none;stroke:#C1C0FF;stroke-miterlimit:10;stroke-dasharray:4;" d="M130.058,337.662
					c-46.999,0-85.1-36.158-85.1-80.761c0-31.525,19.034-58.832,46.79-72.134"/>
				<path style="fill:none;stroke:#C1C0FF;stroke-miterlimit:10;stroke-dasharray:4;" d="M313.85,356.37
					c3.454,31.576-20.303,60.079-53.063,63.663c-32.76,3.584-62.118-19.108-65.572-50.685"/>
				
					<ellipse style="fill:none;stroke:#C1C0FF;stroke-miterlimit:10;stroke-dasharray:4;" cx="382.301" cy="145.742" rx="57.992" ry="56.707"/>
				
					<ellipse style="fill:none;stroke:#C1C0FF;stroke-miterlimit:10;stroke-dasharray:4;" cx="204.801" cy="222.652" rx="55.33" ry="54.104"/>
				
					<ellipse style="fill:none;stroke:#C1C0FF;stroke-miterlimit:10;stroke-dasharray:4;" cx="458.236" cy="301.614" rx="54.254" ry="50.144"/>
			</g>
		</g>
		<g>
			<g>
				<g>
					<g>
						<path style="fill:#B4AAF9;" d="M258.01,391.896H129.672c-5.162,0-9.347-4.185-9.347-9.347v-82.598
							c0-5.162,4.185-9.347,9.347-9.347H258.01c5.162,0,9.347,4.185,9.347,9.347v82.598
							C267.356,387.711,263.172,391.896,258.01,391.896z"/>
						<g>
							<path style="fill:#FFFFFF;" d="M248.277,373.705H139.404c-5.162,0-9.347-4.185-9.347-9.347v-58.517
								c0-5.162,4.185-9.347,9.347-9.347h108.873c5.162,0,9.347,4.185,9.347,9.347v58.517
								C257.624,369.521,253.439,373.705,248.277,373.705z"/>
							<path d="M168.179,331.781c0,0-6.924,21.814,7.225,26.631c14.149,4.817,15.734,0.827,18.878,8.36
								c3.145,7.533,15.741,4.283,16.945-7.306c1.204-11.59-7.348-10.687-11.802-11.289c-4.454-0.602-7.419-8.781-7.377-13.037
								C192.091,330.884,169.781,322.896,168.179,331.781z"/>
							<g>
								<defs>
									<path id="SVGID_1_" d="M248.277,373.705H139.404c-5.162,0-9.347-4.185-9.347-9.347v-58.517
										c0-5.162,4.185-9.347,9.347-9.347h108.873c5.162,0,9.347,4.185,9.347,9.347v58.517
										C257.624,369.521,253.439,373.705,248.277,373.705z"/>
								</defs>
								<clipPath id="SVGID_00000167369589247822547790000008358748776760374434_">
									<use xlink:href="#SVGID_1_"  style="overflow:visible;"/>
								</clipPath>
								<g style="clip-path:url(#SVGID_00000167369589247822547790000008358748776760374434_);">
									<g>
										<path style="fill:#FFFFFF;stroke:#000000;stroke-miterlimit:10;" d="M183.869,352.241c0,0,15.081,0.921,30.639,15.54
											c15.558,14.619,15.15,52.346,15.15,52.346l-46.445-1.186L183.869,352.241z"/>
										<g>
											<path style="fill:#FFFFFF;" d="M199.808,364.728c10.408,7.784,31.593,54.029,24.867,54.19
												c-6.726,0.161-87.011-0.483-89.533-2.978c-2.522-2.495,8.407-24.54,8.407-24.54s16.888-34.706,43.04-34.923
												C195.306,356.405,188.696,356.418,199.808,364.728z"/>
											<path style="fill:none;stroke:#1C191B;stroke-miterlimit:10;" d="M157.152,393.181c0,0-7.357,20.619-5.659,22.953
												c1.698,2.334,55.744,2.936,60.271,2.785c4.527-0.151-3.144-32.656-6.978-42.005"/>
										</g>
									</g>
									<g>
										<path style="fill:#FFFFFF;stroke:#1C191B;stroke-miterlimit:10;" d="M185.432,403.97c0,0,6.062-4.057,21.731-0.201
											c0,0,3.041,1.366,0.708,1.986c-2.332,0.62-8.152-0.321-8.152-0.321s9.024,0.824,9.228,2.394
											c0.204,1.57-8.507,0.044-8.507,0.044s9.387,1.477,9.274,3.07c-0.112,1.592-5.333-0.183-10.399,0.18
											c-5.067,0.363-14.307,4.082-15.739,3.053C182.145,413.147,179.024,406.354,185.432,403.97z"/>
										<g>
											<path style="fill:#FFFFFF;stroke:#000000;stroke-miterlimit:10;" d="M180.352,352.243
												c-9.361,0.084-19.619,2.994-29.558,11.098c-13.565,11.061-36.576,45.832-26.529,63.782
												c10.047,17.949,33.189,10.95,41.204,7.338c8.015-3.612,23.689-15.631,25.4-20.546c2.004-5.757,1.129-9.821-6.096-11.627
												c-7.225-1.806-33.753,1.016-38.946,4.403"/>
											<path style="fill:#EEDA36;stroke:#000000;stroke-miterlimit:10;" d="M190.869,413.915
												c1.959-5.626,1.15-9.629-5.63-11.495c-0.361,1.808-0.45,3.971-0.186,6.27c0.442,3.842,1.754,7.095,3.355,8.821
												C189.656,416.118,190.534,414.879,190.869,413.915z"/>
										</g>
									</g>
									<path style="fill:#EEDA36;stroke:#1C191B;stroke-miterlimit:10;" d="M169.109,380.148c0,0-7.911-5.795-4.864-8.464
										c3.047-2.669,5.674,2.842,5.674,2.842s1.836-4.833,4.455-3.218C176.993,372.922,169.109,380.148,169.109,380.148z"/>
								</g>
							</g>
							<g>
								<path style="fill:#EEDA36;stroke:#1C191B;stroke-miterlimit:10;" d="M188.84,355.441c0,2.731-3.8,4.945-8.487,4.945
									c-4.687,0-8.487-2.214-8.487-4.945c0-2.731,3.8-4.945,8.487-4.945C185.04,350.496,188.84,352.71,188.84,355.441z"/>
								<path style="fill:#FFFFFF;stroke:#000000;stroke-miterlimit:10;" d="M164.543,331.781c0,3.454,2.823,6.255,6.306,6.255
									s6.306-2.8,6.306-6.255c0-3.454-2.823-6.255-6.306-6.255S164.543,328.326,164.543,331.781z"/>
								<path style="fill:#FFFFFF;stroke:#000000;stroke-miterlimit:10;" d="M190.789,313.498h-7.461
									c-4.961,0-9.019,4.621-9.019,10.269v11.566c0,0.326,0.017,0.648,0.043,0.966c-0.08,0.341-0.128,0.695-0.128,1.06v7.041
									v0.392v7.041c0,2.555,2.09,4.645,4.645,4.645h2.96c2.555,0,4.645-2.09,4.645-4.645v-6.231h4.314
									c4.96,0,9.019-4.621,9.019-10.269v-11.566C199.808,318.119,195.749,313.498,190.789,313.498z"/>
								<g>
									<g>
										<path d="M173.678,328.967c0,0,7.315-2.431,9.534-7.15c2.219-4.72,1.665-5.738,1.665-5.738s4.123,5.646,10.641,7.033
											c5.379,1.145,5.16,0.35,5.691-0.902c0.486-1.145,0.815-9.115-7.355-14.02c-8.17-4.905-16.948-4.419-23.004,1.689
											c-6.056,6.108-5.316,15.732-3.28,18.138C169.606,330.423,172.289,331.767,173.678,328.967z"/>
									</g>
									
										<ellipse transform="matrix(0.2298 -0.9732 0.9732 0.2298 -159.4016 396.5806)" cx="170.849" cy="298.996" rx="7.304" ry="7.304"/>
								</g>
								<g>
									<path style="fill:#FFFFFF;" d="M164.909,331.781c0,3.254,2.66,5.892,5.94,5.892s5.94-2.638,5.94-5.892
										c0-3.254-2.66-5.892-5.94-5.892S164.909,328.526,164.909,331.781z"/>
									<path style="fill:none;stroke:#020202;stroke-miterlimit:10;" d="M174.063,332.559c0,0,0.262-4.002-3.848-3.557"/>
								</g>
								<g>
									<g>
										<circle cx="186.559" cy="327.546" r="1.682"/>
										<path d="M195.888,327.299c0,0.793,0.643,1.436,1.436,1.436c0.793,0,1.436-0.643,1.436-1.436
											c0-0.793-0.643-1.435-1.436-1.435C196.531,325.864,195.888,326.506,195.888,327.299z"/>
									</g>
									<path style="fill:none;stroke:#0C0C0C;stroke-miterlimit:10;" d="M194.282,334.181c0,0-0.845,2.463-2.632,2.632
										c-1.787,0.169-3.187-1.811-3.284-3.357"/>
									<g>
										<path style="fill:#E4B0C8;" d="M179.031,333.73c0,2.309,1.872,4.181,4.18,4.181s4.181-1.872,4.181-4.181
											s-1.872-4.181-4.181-4.181S179.031,331.422,179.031,333.73z"/>
										<path style="fill:#E4B0C8;" d="M198.687,330.897c0.255,0,0.501,0.033,0.738,0.089v4.336c0,0.648-0.024,1.275-0.156,1.885
											c-0.174,0.03-0.399,0.054-0.582,0.054c-1.757,0-3.182-1.425-3.182-3.182C195.505,332.322,196.93,330.897,198.687,330.897z
											"/>
									</g>
									<polygon style="fill:#DB7294;" points="192.392,325.864 192.048,331.591 194.783,329.925 									"/>
								</g>
							</g>
							<path style="fill:none;stroke:#000000;stroke-miterlimit:10;" d="M246.035,313.498h-30.074c-2.986,0-5.406-2.42-5.406-5.406
								l0,0c0-2.986,2.42-5.406,5.406-5.406h30.074c2.986,0,5.406,2.42,5.406,5.406l0,0
								C251.441,311.078,249.021,313.498,246.035,313.498z"/>
						</g>
						<path style="fill:none;stroke:#000000;stroke-miterlimit:10;" d="M248.277,373.705H139.404c-5.162,0-9.347-4.185-9.347-9.347
							v-58.517c0-5.162,4.185-9.347,9.347-9.347h108.873c5.162,0,9.347,4.185,9.347,9.347v58.517
							C257.624,369.521,253.439,373.705,248.277,373.705z"/>
					</g>
					<g>
						<g>
							<path d="M197.433,382.525c-0.019,1.399-0.879,2.697-2.212,3.177c-1.359,0.49-2.898,0.069-3.81-1.054
								c-0.884-1.089-0.981-2.663-0.265-3.861c0.712-1.192,2.136-1.85,3.506-1.595C196.26,379.491,197.411,380.899,197.433,382.525
								c0.011,0.804,1.261,0.806,1.25,0c-0.027-1.938-1.217-3.656-3.03-4.346c-1.798-0.684-3.942-0.108-5.159,1.379
								c-1.229,1.502-1.431,3.656-0.428,5.335c1.002,1.676,2.956,2.522,4.864,2.179c2.174-0.391,3.723-2.375,3.753-4.548
								C198.694,381.72,197.444,381.72,197.433,382.525z"/>
						</g>
					</g>
				</g>
				<g>
					<g>
						<g>
							<path style="fill:#B4AAF9;" d="M342.458,255.384h-107.93c-4.341,0-7.86-3.519-7.86-7.86v-69.463
								c0-4.341,3.519-7.86,7.86-7.86h107.93c4.341,0,7.86,3.519,7.86,7.86v69.463C350.319,251.865,346.8,255.384,342.458,255.384z"
								/>
							<path style="fill:#FFFFFF;stroke:#000000;stroke-miterlimit:10;" d="M334.274,240.087h-91.56c-4.341,0-7.86-3.519-7.86-7.86
								v-49.212c0-4.341,3.519-7.86,7.86-7.86h91.56c4.341,0,7.86,3.519,7.86,7.86v49.212
								C342.134,236.567,338.615,240.087,334.274,240.087z"/>
							<g>
								<path style="fill:#DB7294;stroke:#000000;stroke-miterlimit:10;" d="M263.03,240.087h49.744
									c-5.019-6.799-14.276-11.363-24.872-11.363C277.306,228.723,268.049,233.288,263.03,240.087z"/>
								<g>
									<ellipse style="stroke:#1C191B;stroke-miterlimit:10;" cx="288.534" cy="230.074" rx="8.152" ry="4.75"/>
									<path style="fill:#FFFFFF;stroke:#000000;stroke-miterlimit:10;" d="M273.348,207.347c0,3.318,2.712,6.008,6.057,6.008
										c3.345,0,6.057-2.69,6.057-6.008c0-3.318-2.712-6.008-6.057-6.008C276.06,201.339,273.348,204.029,273.348,207.347z"/>
									<path style="fill:#FFFFFF;stroke:#000000;stroke-miterlimit:10;" d="M298.558,189.786h-7.167
										c-4.765,0-8.663,4.439-8.663,9.864v11.11c0,0.313,0.016,0.622,0.042,0.928c-0.077,0.328-0.122,0.667-0.122,1.018v6.763
										v0.377v6.763c0,2.454,2.008,4.462,4.462,4.462h2.843c2.454,0,4.462-2.008,4.462-4.462v-5.985h4.144
										c4.765,0,8.663-4.439,8.663-9.864v-11.11C307.221,194.224,303.323,189.786,298.558,189.786z"/>
									<g>
										<g>
											<path d="M282.122,204.644c0,0,7.027-2.335,9.158-6.868c2.131-4.533,1.6-5.511,1.6-5.511s3.96,5.423,10.221,6.756
												c5.167,1.1,4.956,0.337,5.467-0.867c0.467-1.1,0.783-8.756-7.065-13.467c-7.848-4.711-16.279-4.245-22.096,1.622
												c-5.817,5.867-5.106,15.111-3.15,17.422C278.211,206.043,280.789,207.334,282.122,204.644z"/>
										</g>
										<g>
											<path style="fill:none;stroke:#000000;stroke-miterlimit:10;" d="M260.891,177.757c0,0-3.036,0.434-3.47,5.205
												c-0.434,4.771-3.47,10.554-10.12,12c-6.651,1.446-22.554,1.301-23.277-15.036c-0.723-16.337,17.639-19.884,23.422-14.024
												c4.094,4.148,5.349,4.482,7.807-0.289c2.458-4.771,10.457-8.807,18.096-1.801c7.639,7.006,2.145,14.813-1.614,15.97
												C267.975,180.938,263.48,175.661,260.891,177.757z"/>
											<circle style="fill:#DB7294;stroke:#000000;stroke-miterlimit:10;" cx="279.791" cy="180.202" r="3.08"/>
										</g>
									</g>
									<g>
										<path style="fill:#FFFFFF;" d="M273.7,207.347c0,3.126,2.555,5.66,5.706,5.66c3.151,0,5.706-2.534,5.706-5.66
											c0-3.126-2.555-5.66-5.706-5.66C276.254,201.688,273.7,204.221,273.7,207.347z"/>
										<path style="fill:none;stroke:#020202;stroke-miterlimit:10;" d="M282.492,208.094c0,0,0.251-3.844-3.696-3.417"/>
									</g>
									<g>
										<g>
											<path style="fill:#0C0C0C;" d="M292.88,203.279c0,0.892,0.723,1.616,1.615,1.616s1.616-0.723,1.616-1.616
												c0-0.892-0.723-1.616-1.616-1.616S292.88,202.387,292.88,203.279z"/>
											<path style="fill:#0C0C0C;" d="M303.456,203.042c0,0.762,0.617,1.379,1.379,1.379c0.762,0,1.379-0.617,1.379-1.379
												c0-0.762-0.617-1.379-1.379-1.379C304.074,201.663,303.456,202.281,303.456,203.042z"/>
										</g>
										<path style="fill:#FFF7F7;stroke:#0C0C0C;stroke-miterlimit:10;" d="M301.914,209.652c0,0-0.812,2.366-2.528,2.528
											c-1.716,0.162-3.062-1.74-3.155-3.224L301.914,209.652z"/>
										<g>
											<path style="fill:#E4B0C8;" d="M287.264,209.22c0,2.218,1.798,4.016,4.016,4.016s4.016-1.798,4.016-4.016
												c0-2.218-1.798-4.016-4.016-4.016S287.264,207.002,287.264,209.22z"/>
											<path style="fill:#E4B0C8;" d="M306.145,206.499c0.244,0,0.481,0.032,0.709,0.086v4.165c0,0.622-0.023,1.224-0.149,1.81
												c-0.168,0.029-0.384,0.052-0.559,0.052c-1.688,0-3.056-1.368-3.056-3.056
												C303.088,207.867,304.457,206.499,306.145,206.499z"/>
										</g>
										<polygon style="fill:#DB7294;" points="300.099,201.663 299.768,207.165 302.395,205.564 										"/>
									</g>
								</g>
							</g>
						</g>
						<g>
							<g>
								<path d="M291.415,247.504c-0.016,1.13-0.709,2.187-1.788,2.576c-1.109,0.4-2.366,0.061-3.108-0.861
									c-0.712-0.885-0.787-2.157-0.207-3.127c0.576-0.964,1.727-1.499,2.836-1.295
									C290.459,245.037,291.397,246.18,291.415,247.504c0.011,0.804,1.261,0.806,1.25,0c-0.023-1.677-1.054-3.155-2.621-3.751
									c-1.543-0.586-3.39-0.089-4.436,1.186c-1.063,1.296-1.243,3.155-0.375,4.607c0.867,1.45,2.554,2.175,4.203,1.878
									c1.871-0.337,3.204-2.052,3.229-3.92C292.676,246.699,291.426,246.699,291.415,247.504z"/>
							</g>
						</g>
					</g>
				</g>
				<g>
					<g>
						<path style="fill:#B4AAF9;" d="M201.961,217.746H94.031c-4.341,0-7.86-3.519-7.86-7.86v-69.463c0-4.341,3.519-7.86,7.86-7.86
							h107.93c4.341,0,7.86,3.519,7.86,7.86v69.463C209.821,214.227,206.302,217.746,201.961,217.746z"/>
						<g>
							<g>
								<path d="M150.917,209.865c-0.016,1.13-0.709,2.187-1.788,2.576c-1.109,0.4-2.366,0.061-3.108-0.861
									c-0.712-0.884-0.787-2.157-0.207-3.127c0.576-0.964,1.727-1.499,2.836-1.295
									C149.962,207.399,150.899,208.542,150.917,209.865c0.011,0.804,1.261,0.806,1.25,0c-0.023-1.676-1.054-3.155-2.622-3.75
									c-1.543-0.586-3.39-0.089-4.436,1.186c-1.063,1.296-1.243,3.155-0.375,4.607c0.867,1.45,2.554,2.175,4.203,1.878
									c1.871-0.337,3.204-2.052,3.229-3.92C152.178,209.061,150.928,209.061,150.917,209.865z"/>
							</g>
						</g>
					</g>
					<g>
						<g>
							<path style="fill:#FFFFFF;" d="M193.776,202.449h-91.56c-4.341,0-7.86-3.519-7.86-7.86v-49.212c0-4.341,3.519-7.86,7.86-7.86
								h91.56c4.341,0,7.86,3.519,7.86,7.86v49.212C201.636,198.929,198.117,202.449,193.776,202.449z"/>
							<g>
								<g>
									<g>
										<defs>
											<path id="SVGID_00000163051764276938449930000012505203479968839569_" d="M193.776,202.449h-91.56
												c-4.341,0-7.86-3.519-7.86-7.86v-49.212c0-4.341,3.519-7.86,7.86-7.86h91.56c4.341,0,7.86,3.519,7.86,7.86v49.212
												C201.636,198.929,198.117,202.449,193.776,202.449z"/>
										</defs>
										<clipPath id="SVGID_00000034076311072199180060000013428638965877764236_">
											<use xlink:href="#SVGID_00000163051764276938449930000012505203479968839569_"  style="overflow:visible;"/>
										</clipPath>
										<g style="clip-path:url(#SVGID_00000034076311072199180060000013428638965877764236_);">
											<g>
												<path style="fill:#FFFFFF;stroke:#000000;stroke-miterlimit:10;" d="M132.766,185.219
													c-20.092,0-36.38,20.489-36.38,45.763h72.76C169.146,205.708,152.859,185.219,132.766,185.219z"/>
												<g>
													<path style="fill:#EEDA36;" d="M121.399,196.24c0,1.434-1.163,2.597-2.597,2.597s-2.597-1.163-2.597-2.597
														c0-1.434,1.163-2.597,2.597-2.597S121.399,194.805,121.399,196.24z"/>
													<circle style="fill:#EEDA36;" cx="131.708" cy="205.94" r="2.886"/>
													<path style="fill:#EEDA36;" d="M145.392,196.24c0,1.434-1.163,2.597-2.597,2.597c-1.434,0-2.597-1.163-2.597-2.597
														c0-1.434,1.163-2.597,2.597-2.597C144.229,193.643,145.392,194.805,145.392,196.24z"/>
													<circle style="fill:#EEDA36;" cx="155.444" cy="202.949" r="2.237"/>
													<path style="fill:#EEDA36;" d="M112.445,207.458c0,1.494-1.211,2.705-2.705,2.705s-2.705-1.211-2.705-2.705
														s1.211-2.705,2.705-2.705S112.445,205.964,112.445,207.458z"/>
													<circle style="fill:#EEDA36;" cx="121.332" cy="215.286" r="2.886"/>
													<circle style="fill:#EEDA36;" cx="148.065" cy="214.781" r="2.381"/>
													<path style="fill:#EEDA36;" d="M162.298,219.471c0,1.275-1.034,2.309-2.309,2.309c-1.275,0-2.309-1.034-2.309-2.309
														c0-1.275,1.034-2.309,2.309-2.309C161.264,217.162,162.298,218.195,162.298,219.471z"/>
													<path style="fill:#EEDA36;" d="M109.343,220.625c0,1.355-1.098,2.453-2.453,2.453c-1.355,0-2.453-1.098-2.453-2.453
														c0-1.355,1.098-2.453,2.453-2.453C108.245,218.172,109.343,219.27,109.343,220.625z"/>
													<path style="fill:#EEDA36;" d="M137.672,223.078c0,1.355-1.098,2.453-2.453,2.453c-1.355,0-2.453-1.098-2.453-2.453
														c0-1.355,1.098-2.453,2.453-2.453C136.574,220.625,137.672,221.723,137.672,223.078z"/>
												</g>
											</g>
											<g>
												<path style="fill:#672ED6;" d="M171.958,207.223l0.725-2.44c0,0,0.075-0.652-0.861-1.012
													c-0.936-0.36-15.254-5.87-15.254-5.87s-1.224-0.719-1.559,0.161c-0.336,0.88-2.711,4.77-2.711,4.77
													s-0.68,0.988,0.149,1.445c0.829,0.457,13.798,5.344,13.798,5.344l3.313,1.373c0,0,1.045,0.375,1.216-0.126
													C170.944,210.367,171.958,207.223,171.958,207.223z"/>
												<path style="fill:#FFFFFF;" d="M175.954,190.087c0,0,1.288-6.658,0.226-7.906c-1.062-1.248-2.068,0.09-2.595,1.774
													c-0.526,1.684-1.356,4.866-1.356,4.866l-3.336-6.714c0,0,7.425-5.411,7.701-6.399s0.344-1.651-0.171-1.657
													c-0.515-0.005-2.098,0.418-2.098,0.418s2.506-2.418,1.728-3.277c-0.778-0.859-3.493,1.114-3.493,1.114
													s0.975-3.672,0.526-4.377c-0.449-0.705-3.486,3.473-4.325,5.031c-0.84,1.558-2.344,4.14-2.344,4.14
													s-1,0.781-0.957,1.199c0.043,0.419-1.224,1.347-1.419,1.521c-0.194,0.175-1.707,3.337-3.14,6.562
													c-1.433,3.225-3.549,7.606-3.549,7.606l-1.038,1.993c0,0-1.108,1.622,1.197,2.281
													c2.305,0.659,11.422,4.396,11.422,4.396l2.89,1.112c0,0,0.868,1.215,1.575-1.58
													C174.103,199.395,175.954,190.087,175.954,190.087z"/>
												<g>
													<path style="fill:none;stroke:#000000;stroke-miterlimit:10;" d="M170.247,212.372
														c5.018-14.014,7.121-28.676,5.932-30.191c-1.652-2.106-2.675,1.488-3.951,6.639l-3.336-6.714
														c0,0,8.007-5.449,8.007-7.62c0-2.171-12.559,3.971-13.659,6.255c-0.708,1.471-4.967,13.473-12.154,23.905"/>
													<path style="fill:none;stroke:#000000;stroke-miterlimit:10;" d="M173.519,174.665c0,0,3.306-2.05,2.533-3.474
														c-0.773-1.423-10.798,5.656-10.55,7.525"/>
													<path style="fill:none;stroke:#000000;stroke-miterlimit:10;" d="M172.207,172.518c0,0,2.057-4.085,0.878-4.589
														c-1.179-0.505-5.393,6.291-5.884,8.37"/>
												</g>
												<g>
													<g>
														<line style="fill:none;stroke:#000000;stroke-miterlimit:10;" x1="172.857" y1="204.169" x2="155.494" y2="197.487"/>
														<line style="fill:none;stroke:#000000;stroke-miterlimit:10;" x1="170.584" y1="211.418" x2="151.777" y2="203.625"/>
													</g>
													<g>
														<line style="fill:none;stroke:#000000;stroke-miterlimit:10;" x1="170.609" y1="203.304" x2="167.927" y2="210.317"/>
														<line style="fill:none;stroke:#000000;stroke-miterlimit:10;" x1="167.281" y1="202.023" x2="164.595" y2="208.936"/>
														<line style="fill:none;stroke:#000000;stroke-miterlimit:10;" x1="164.161" y1="200.694" x2="161.546" y2="207.516"/>
														<line style="fill:none;stroke:#000000;stroke-miterlimit:10;" x1="160.709" y1="199.42" x2="158.333" y2="206.229"/>
														<line style="fill:none;stroke:#000000;stroke-miterlimit:10;" x1="157.802" y1="198.359" x2="154.96" y2="204.907"/>
													</g>
												</g>
											</g>
										</g>
									</g>
									<g>
										<path style="fill:none;stroke:#000000;stroke-width:2;stroke-miterlimit:10;" d="M118.446,164.729
											c0,3.018,2.466,5.464,5.509,5.464s5.508-2.446,5.508-5.464c0-3.018-2.466-5.464-5.508-5.464
											S118.446,161.712,118.446,164.729z"/>
										<path style="fill:#672ED6;stroke:#211F21;stroke-miterlimit:10;" d="M140.637,186.67c0,2.533-3.524,4.586-7.87,4.586
											c-4.347,0-7.87-2.053-7.87-4.586c0-2.533,3.524-4.586,7.87-4.586C137.113,182.084,140.637,184.137,140.637,186.67z"/>
										<path style="fill:#FFFFFF;stroke:#000000;stroke-miterlimit:10;" d="M142.445,147.775h-6.919
											c-4.6,0-8.364,4.285-8.364,9.522v10.725c0,0.302,0.016,0.601,0.04,0.896c-0.075,0.316-0.118,0.644-0.118,0.982v6.529
											v0.364v6.529c0,2.369,1.938,4.308,4.308,4.308h2.745c2.369,0,4.308-1.938,4.308-4.308v-5.778h4.001
											c4.6,0,8.364-4.285,8.364-9.522v-10.725C150.808,152.061,147.044,147.775,142.445,147.775z"/>
										<g>
											<g>
												<path style="fill:#141414;" d="M136.962,160.802c0,0.861,0.698,1.56,1.56,1.56c0.861,0,1.56-0.698,1.56-1.56
													c0-0.861-0.698-1.56-1.56-1.56C137.66,159.242,136.962,159.941,136.962,160.802z"/>
												<path style="fill:#141414;" d="M147.173,160.574c0,0.735,0.596,1.331,1.331,1.331c0.735,0,1.331-0.596,1.331-1.331
													c0-0.735-0.596-1.331-1.331-1.331C147.769,159.242,147.173,159.838,147.173,160.574z"/>
											</g>
											<g>
												<path style="fill:#F7F6F6;" d="M145.684,166.955c0,0-0.784,2.284-2.441,2.441c-1.657,0.157-2.956-1.679-3.045-3.112
													L145.684,166.955z"/>
												<g>
													<path style="fill:#141414;" d="M145.146,166.807c-0.02,0.057-0.044,0.113-0.066,0.17
														c0.066-0.173-0.015,0.032-0.042,0.09c-0.042,0.089-0.086,0.178-0.132,0.265c-0.236,0.444-0.442,0.747-0.795,1.069
														c-0.342,0.312-0.783,0.511-1.297,0.433c-0.507-0.077-0.986-0.432-1.333-0.848c-0.198-0.238-0.369-0.527-0.491-0.804
														c-0.126-0.288-0.214-0.643-0.233-0.899c-0.186,0.186-0.372,0.372-0.558,0.558c1.601,0.196,3.203,0.392,4.804,0.588
														c0.227,0.028,0.455,0.056,0.682,0.084c0.3,0.037,0.558-0.283,0.558-0.558c0-0.332-0.258-0.521-0.558-0.558
														c-1.601-0.196-3.203-0.392-4.804-0.588c-0.227-0.028-0.455-0.056-0.682-0.084c-0.285-0.035-0.579,0.284-0.558,0.558
														c0.113,1.513,1.123,3.093,2.616,3.561c1.462,0.458,2.727-0.471,3.456-1.671c0.204-0.335,0.382-0.699,0.51-1.07
														c0.099-0.285-0.113-0.611-0.39-0.687C145.525,166.332,145.245,166.52,145.146,166.807z"/>
												</g>
											</g>
											<g>
												<circle style="fill:#E4B0C8;" cx="135.418" cy="166.537" r="3.877"/>
												<path style="fill:#E4B0C8;" d="M149.768,163.91c0.236,0,0.464,0.031,0.684,0.083v4.021c0,0.601-0.022,1.182-0.144,1.748
													c-0.162,0.027-0.37,0.05-0.54,0.05c-1.629,0-2.951-1.321-2.951-2.951C146.818,165.231,148.139,163.91,149.768,163.91z"
													/>
											</g>
											<polygon style="fill:#D96980;" points="143.932,159.242 143.612,164.553 146.148,163.008 											"/>
										</g>
										<path d="M129.051,162.661l1.2-6.508c0,0,6.736,2.154,11.887-1.973c5.15-4.127-3.305-5.785-1.941-2.715
											c1.364,3.071,6.087,4.336,11.932,3.692c8.698-0.959,8.916-11.467,3.917-14.552c-4.999-3.085-10.654,0.543-10.654,0.543
											s2.604-5.213-3.905-6.95c-5.351-1.428-9.357,3.101-9.945,5.104c0,0-8.817,0.869-12.739,6.407
											c-3.922,5.538-4.228,12.164-0.356,18.201c3.872,6.038,8.491,9.291,8.491,9.291S127.693,165.386,129.051,162.661z"/>
										<g>
											<path style="fill:#FFFFFF;" d="M118.446,164.729c0,3.018,2.466,5.464,5.509,5.464s5.508-2.446,5.508-5.464
												c0-3.018-2.466-5.464-5.508-5.464S118.446,161.712,118.446,164.729z"/>
											<g>
												<g>
													<path style="fill:#090909;" d="M127.622,165.451c0.03-0.479-0.049-0.99-0.179-1.449
														c-0.265-0.935-0.866-1.79-1.766-2.204c-0.725-0.334-1.522-0.415-2.311-0.333c-0.357,0.037-0.706,0.29-0.688,0.688
														c0.015,0.341,0.305,0.728,0.688,0.688c0.329-0.034,0.66-0.045,0.989-0.012c0.034,0.003,0.068,0.01,0.102,0.011
														c-0.207-0.01-0.079-0.01-0.026-0.001c0.063,0.011,0.125,0.023,0.187,0.038c0.128,0.03,0.251,0.07,0.375,0.114
														c0.167,0.059-0.138-0.071,0.02,0.009c0.048,0.024,0.096,0.047,0.144,0.073c0.097,0.053,0.187,0.137,0.285,0.183
														c-0.138-0.064-0.113-0.091-0.057-0.044c0.019,0.016,0.038,0.031,0.056,0.047c0.036,0.032,0.072,0.064,0.106,0.098
														c0.074,0.072,0.134,0.159,0.207,0.23c-0.165-0.159-0.05-0.066-0.009-0.007c0.026,0.037,0.051,0.075,0.075,0.113
														c0.052,0.082,0.099,0.168,0.142,0.255c0.021,0.043,0.039,0.087,0.06,0.129c0.037,0.073-0.073-0.184-0.034-0.082
														c0.007,0.02,0.016,0.039,0.023,0.059c0.034,0.088,0.064,0.178,0.091,0.268c0.045,0.152,0.081,0.307,0.108,0.464
														c0.006,0.034,0.011,0.068,0.016,0.102c0.023,0.141-0.023-0.204-0.009-0.066c0.007,0.065,0.014,0.13,0.019,0.195
														c0.011,0.144,0.018,0.29,0.009,0.434c-0.023,0.36,0.333,0.704,0.688,0.688
														C127.326,166.121,127.597,165.836,127.622,165.451L127.622,165.451z"/>
												</g>
											</g>
										</g>
									</g>
								</g>
							</g>
							<path style="fill:none;" d="M193.776,202.449h-91.56c-4.341,0-7.86-3.519-7.86-7.86v-49.212c0-4.341,3.519-7.86,7.86-7.86
								h91.56c4.341,0,7.86,3.519,7.86,7.86v49.212C201.636,198.929,198.117,202.449,193.776,202.449z"/>
						</g>
						<path style="fill:none;stroke:#000000;stroke-miterlimit:10;" d="M193.776,202.449h-91.56c-4.341,0-7.86-3.519-7.86-7.86
							v-49.212c0-4.341,3.519-7.86,7.86-7.86h91.56c4.341,0,7.86,3.519,7.86,7.86v49.212
							C201.636,198.929,198.117,202.449,193.776,202.449z"/>
					</g>
				</g>
				<g>
					<g>
						<g>
							<path style="fill:#B4AAF9;" d="M410.042,363.888H301.11c-4.381,0-7.933-3.552-7.933-7.933v-70.108
								c0-4.381,3.552-7.933,7.933-7.933h108.931c4.382,0,7.933,3.552,7.933,7.933v70.108
								C417.975,360.336,414.423,363.888,410.042,363.888z"/>
							<g>
								<g>
									<path d="M358.53,355.934c-0.016,1.143-0.717,2.212-1.809,2.606c-1.121,0.405-2.392,0.061-3.142-0.87
										c-0.72-0.895-0.797-2.181-0.21-3.163c0.582-0.975,1.747-1.516,2.869-1.31C357.564,353.44,358.512,354.596,358.53,355.934
										c0.011,0.804,1.261,0.806,1.25,0c-0.023-1.689-1.062-3.18-2.642-3.78c-1.556-0.591-3.417-0.09-4.471,1.195
										c-1.071,1.306-1.252,3.18-0.378,4.643c0.873,1.462,2.573,2.192,4.235,1.893c1.886-0.339,3.229-2.068,3.255-3.951
										C359.791,355.13,358.541,355.129,358.53,355.934z"/>
								</g>
							</g>
						</g>
						<g>
							<path style="fill:#FFFFFF;" d="M401.781,348.449h-92.41c-4.381,0-7.933-3.552-7.933-7.933v-49.668
								c0-4.381,3.552-7.933,7.933-7.933h92.41c4.381,0,7.933,3.552,7.933,7.933v49.668
								C409.714,344.897,406.162,348.449,401.781,348.449z"/>
							<g>
								<g>
									<g>
										<defs>
											<path id="SVGID_00000073679698143482413680000009117208517338820778_" d="M401.781,348.449h-92.41
												c-4.381,0-7.933-3.552-7.933-7.933v-49.668c0-4.381,3.552-7.933,7.933-7.933h92.41c4.381,0,7.933,3.552,7.933,7.933
												v49.668C409.714,344.897,406.162,348.449,401.781,348.449z"/>
										</defs>
										<clipPath id="SVGID_00000026865887022932867220000009144530110029156285_">
											<use xlink:href="#SVGID_00000073679698143482413680000009117208517338820778_"  style="overflow:visible;"/>
										</clipPath>
										<g style="clip-path:url(#SVGID_00000026865887022932867220000009144530110029156285_);">
											<path style="fill:#672ED6;stroke:#000000;stroke-width:0.909;stroke-miterlimit:10;" d="M290.683,346.89
												c0,0,16.35-15.614,33.751-18.837c17.401-3.224,52.249-2.904,71.111,22.033c18.862,24.937-27.494,46.996-28.773,47.156
												c-1.279,0.16-76.568-12.444-79.446-14.614C284.448,380.457,273.579,367.512,290.683,346.89z"/>
											<g>
												<path style="fill:#672ED6;stroke:#000000;stroke-width:0.909;stroke-miterlimit:10;" d="M361.686,334.034
													c0,0,28.194,56.639,21.883,67.458c-6.311,10.819-53.022,21.139-76.335,9.316c-27.26-13.824,8.604-71.22,17.075-84.446
													L361.686,334.034z"/>
												<path style="fill:#FFFFFF;" d="M317.979,346.89c0,3.565,2.89,6.455,6.455,6.455s6.455-2.89,6.455-6.455
													s-2.89-6.455-6.455-6.455S317.979,343.325,317.979,346.89z"/>
											</g>
										</g>
									</g>
									<path style="fill:none;stroke:#000000;stroke-miterlimit:10;" d="M401.781,348.449h-92.41
										c-4.381,0-7.933-3.552-7.933-7.933v-49.668c0-4.381,3.552-7.933,7.933-7.933h92.41c4.381,0,7.933,3.552,7.933,7.933v49.668
										C409.714,344.897,406.162,348.449,401.781,348.449z"/>
									<g>
										
											<ellipse transform="matrix(0.102 -0.9948 0.9948 0.102 -18.7823 636.23)" style="fill:#672ED6;stroke:#000000;stroke-width:0.9716;stroke-miterlimit:10;" cx="342.997" cy="328.518" rx="14.719" ry="22.76"/>
										<g>
											<g>
												<path style="fill:none;stroke:#000000;stroke-width:1.8801;stroke-miterlimit:10;" d="M330.989,306.11
													c0,3.265,2.668,5.912,5.96,5.912c3.291,0,5.96-2.647,5.96-5.912c0-3.265-2.668-5.911-5.96-5.911
													C333.657,300.199,330.989,302.845,330.989,306.11z"/>
												<path style="fill:#FFFFFF;stroke:#000000;stroke-width:0.94;stroke-miterlimit:10;" d="M356.954,287.767h-7.486
													c-4.977,0-9.049,4.636-9.049,10.303v11.604c0,0.327,0.017,0.65,0.043,0.969c-0.081,0.342-0.128,0.697-0.128,1.063v7.064
													v0.393v7.064c0,2.563,2.097,4.661,4.661,4.661h2.97c2.563,0,4.66-2.097,4.66-4.661v-6.251h4.329
													c4.977,0,9.049-4.636,9.049-10.303V298.07C366.003,292.403,361.931,287.767,356.954,287.767z"/>
												<g>
													<g>
														<path style="fill:#0C0C0C;" d="M351.023,301.861c0,0.932,0.755,1.687,1.687,1.687c0.932,0,1.688-0.755,1.688-1.687
															c0-0.932-0.755-1.688-1.688-1.688C351.778,300.174,351.023,300.929,351.023,301.861z"/>
														<path style="fill:#0C0C0C;" d="M362.07,301.614c0,0.796,0.645,1.441,1.44,1.441s1.44-0.645,1.44-1.441
															s-0.645-1.44-1.44-1.44S362.07,300.818,362.07,301.614z"/>
													</g>
													<g>
														<path style="fill:#FFF7F7;" d="M360.459,308.518c0,0-0.848,2.471-2.641,2.641c-1.793,0.17-3.198-1.817-3.295-3.368
															L360.459,308.518z"/>
														<g>
															<path style="fill:#0C0C0C;" d="M359.953,308.379c-0.022,0.062-0.047,0.123-0.071,0.184
																c0.062-0.155-0.03,0.066-0.054,0.116c-0.045,0.097-0.093,0.192-0.143,0.287c-0.24,0.452-0.5,0.833-0.872,1.173
																c-0.393,0.358-0.907,0.575-1.46,0.492c-0.605-0.091-1.116-0.483-1.499-0.941c-0.437-0.523-0.755-1.215-0.806-1.898
																c-0.175,0.175-0.35,0.35-0.525,0.525c1.733,0.212,3.465,0.424,5.198,0.637c0.246,0.03,0.492,0.06,0.738,0.09
																c0.282,0.034,0.525-0.266,0.525-0.525c0-0.312-0.242-0.49-0.525-0.525c-1.733-0.212-3.465-0.424-5.198-0.637
																c-0.246-0.03-0.492-0.06-0.738-0.09c-0.268-0.033-0.544,0.267-0.525,0.525c0.12,1.601,1.193,3.281,2.772,3.776
																c1.547,0.485,2.879-0.503,3.65-1.771c0.217-0.357,0.407-0.743,0.544-1.139
																C361.186,308.018,360.173,307.743,359.953,308.379z"/>
														</g>
													</g>
													<g>
														<path style="fill:#E4B0C8;" d="M345.158,308.066c0,2.317,1.878,4.194,4.194,4.194c2.317,0,4.194-1.878,4.194-4.194
															c0-2.317-1.878-4.194-4.194-4.194C347.035,303.872,345.158,305.75,345.158,308.066z"/>
														<path style="fill:#E4B0C8;" d="M364.878,305.224c0.255,0,0.503,0.033,0.741,0.09v4.35c0,0.65-0.024,1.279-0.156,1.891
															c-0.175,0.03-0.401,0.054-0.584,0.054c-1.763,0-3.192-1.429-3.192-3.192
															C361.686,306.653,363.115,305.224,364.878,305.224z"/>
													</g>
													<polygon style="fill:#DB7294;" points="358.563,300.174 358.218,305.92 360.961,304.248 													"/>
												</g>
												<path d="M342.381,305.92l1.382-9.089c0,0,25.147,3.152,33.3-9.063c8.152-12.216-0.414-17.052-4.56-16.361
													c-4.145,0.691-8.992,6.632-8.992,6.632s3.858-5.251,0-6.08c-3.858-0.829-8.12,3.178-10.342,7.323
													c0,0-16.576-1.546-22.18,8.485c-5.604,10.03-1.062,17.146,9.187,27.509l0.685-5.796L342.381,305.92z"/>
												<g>
													<path style="fill:#FFFFFF;" d="M330.989,306.11c0,3.265,2.668,5.912,5.96,5.912c3.291,0,5.96-2.647,5.96-5.912
														c0-3.265-2.668-5.911-5.96-5.911C333.657,300.199,330.989,302.845,330.989,306.11z"/>
													<g>
														<g>
															<path style="fill:#020202;" d="M340.819,306.891c0.033-0.51-0.052-1.053-0.19-1.542
																c-0.281-0.989-0.914-1.889-1.866-2.327c-0.768-0.353-1.616-0.434-2.451-0.347c-0.336,0.035-0.664,0.272-0.647,0.647
																c0.014,0.321,0.286,0.684,0.647,0.647c0.356-0.037,0.714-0.048,1.07-0.013c0.017,0.002,0.102,0.001,0.11,0.013
																c-0.02-0.031-0.142-0.022-0.002,0.002c0.068,0.012,0.135,0.025,0.202,0.041c0.138,0.032,0.272,0.076,0.406,0.123
																c0.166,0.059-0.111-0.059,0.045,0.019c0.052,0.026,0.104,0.051,0.156,0.079c0.037,0.02,0.289,0.208,0.309,0.198
																c-0.02,0.01-0.131-0.108-0.042-0.032c0.02,0.017,0.041,0.034,0.061,0.051c0.039,0.034,0.078,0.07,0.115,0.106
																c0.073,0.071,0.142,0.194,0.225,0.249c-0.101-0.066-0.079-0.108-0.029-0.036c0.011,0.016,0.023,0.032,0.034,0.048
																c0.028,0.04,0.055,0.081,0.081,0.122c0.056,0.089,0.107,0.181,0.154,0.275c0.023,0.046,0.042,0.095,0.065,0.14
																c0.037,0.07-0.067-0.168-0.027-0.065c0.008,0.021,0.017,0.042,0.025,0.064c0.037,0.095,0.07,0.192,0.099,0.29
																c0.049,0.165,0.087,0.333,0.117,0.502c0.006,0.037,0.012,0.074,0.018,0.111c0.023,0.143-0.021-0.185-0.006-0.046
																c0.007,0.07,0.015,0.14,0.021,0.211c0.012,0.155,0.02,0.314,0.01,0.47c-0.022,0.338,0.313,0.662,0.647,0.647
																C340.542,307.521,340.796,307.253,340.819,306.891L340.819,306.891z"/>
														</g>
													</g>
												</g>
											</g>
											<g>
												<path style="fill:#EEDA36;stroke:#000000;stroke-width:0.94;stroke-miterlimit:10;" d="M353.169,279.282
													c0,0-16.571,17.121-23.439,22.332c0,0-8.935-19.774-3.863-25.293C329.934,271.896,349.774,274.495,353.169,279.282z"/>
												
													<line style="fill:none;stroke:#000000;stroke-width:0.94;stroke-miterlimit:10;" x1="347.692" y1="276.061" x2="327.49" y2="295.973"/>
											</g>
										</g>
										<g>
											<path style="fill:#672ED6;" d="M357.779,321.843l2.7,10.025l-20.454,6.478l-1.056-4.187l-7.555-4.49l3.128-8.462
												l8.947,6.956l0.59,0.487c0,0,0.326,0.554,1.983-0.358C347.72,327.381,357.779,321.843,357.779,321.843z"/>
											<g>
												<polyline style="fill:none;stroke:#000000;stroke-width:0.94;stroke-miterlimit:10;" points="358.567,321.41 
													339.063,332.147 338.944,334.695 												"/>
												
													<line style="fill:none;stroke:#000000;stroke-width:0.94;stroke-miterlimit:10;" x1="334.058" y1="321.186" x2="344.691" y2="329.048"/>
											</g>
										</g>
										<g>
											<g>
												<path style="fill:none;stroke:#000000;stroke-width:0.94;stroke-miterlimit:10;" d="M334.058,332.871
													c0,0-13.8,9.149-23.217,5.476"/>
												
													<circle style="fill:none;stroke:#000000;stroke-width:0.94;stroke-miterlimit:10;" cx="333.719" cy="332.784" r="1.54"/>
											</g>
											<g>
												<path style="fill:none;stroke:#000000;stroke-width:0.94;stroke-miterlimit:10;" d="M351.35,336.282
													c0,0.876,0.71,1.586,1.586,1.586c0.876,0,1.586-0.71,1.586-1.586s-0.71-1.586-1.586-1.586
													C352.061,334.695,351.35,335.406,351.35,336.282z"/>
												<path style="fill:none;stroke:#000000;stroke-width:0.94;stroke-miterlimit:10;" d="M352.937,336.282
													c0,0,5.63,16.25,15.463,20.974"/>
											</g>
										</g>
									</g>
								</g>
							</g>
						</g>
					</g>
				</g>
				<g>
					<g>
						<path style="fill:#B4AAF9;" d="M580.332,423.797H451.995c-5.162,0-9.347-4.185-9.347-9.347v-82.598
							c0-5.162,4.185-9.347,9.347-9.347h128.338c5.162,0,9.347,4.185,9.347,9.347v82.598
							C589.679,419.612,585.495,423.797,580.332,423.797z"/>
						<g>
							<g>
								<path d="M519.756,414.426c-0.019,1.399-0.879,2.697-2.212,3.177c-1.359,0.49-2.898,0.069-3.81-1.054
									c-0.884-1.089-0.981-2.663-0.265-3.861c0.712-1.192,2.136-1.85,3.506-1.595
									C518.583,411.393,519.734,412.801,519.756,414.426c0.011,0.804,1.261,0.806,1.25,0c-0.027-1.938-1.217-3.656-3.03-4.346
									c-1.798-0.684-3.942-0.108-5.159,1.379c-1.229,1.502-1.431,3.656-0.428,5.335c1.002,1.676,2.956,2.522,4.864,2.179
									c2.174-0.391,3.723-2.375,3.753-4.548C521.017,413.621,519.767,413.621,519.756,414.426z"/>
							</g>
						</g>
					</g>
					<g>
						<path style="fill:#FFFFFF;stroke:#000000;stroke-miterlimit:10;" d="M570.6,405.607H461.727c-5.162,0-9.347-4.185-9.347-9.347
							v-58.517c0-5.162,4.185-9.347,9.347-9.347H570.6c5.162,0,9.347,4.185,9.347,9.347v58.517
							C579.947,401.422,575.762,405.607,570.6,405.607z"/>
						<g>
							<g>
								<g>
									<path d="M513.449,372.536c0,0,19.176,9.185,26.365-4.26c7.188-13.445-4.275-29.952-13.585-32.348
										C516.917,333.533,509.581,359.89,513.449,372.536z"/>
									<path d="M505.176,373.601c0,0-8.359,6.257-21.139,1.464c-12.779-4.792-4.925-28.221,0-35.409
										c4.925-7.188,15.982-11.581,20.903-9.318S513.92,358.915,505.176,373.601z"/>
									
										<ellipse transform="matrix(0.5942 -0.8043 0.8043 0.5942 -69.1405 519.1534)" cx="479.929" cy="328.097" rx="9.176" ry="9.176"/>
								</g>
								<g>
									<path style="fill:#FFFFFF;stroke:#000000;stroke-miterlimit:10;" d="M533.735,354.254c0,0-3.082-7.041-5.681-6.604
										c-2.598,0.438-1.868,5.006-1.51,7.491c0.358,2.485,1.563,5.634-1.169,8.541
										C522.642,366.59,536.131,362.241,533.735,354.254z"/>
									<g>
										<path style="fill:#FFFFFF;stroke:#000000;stroke-miterlimit:10;" d="M519.669,334.615h-7.85
											c-5.219,0-9.489,4.862-9.489,10.803v12.168c0,0.343,0.018,0.681,0.046,1.016c-0.085,0.359-0.134,0.731-0.134,1.115v7.407
											v0.413v7.407c0,2.688,2.199,4.887,4.887,4.887h3.114c2.688,0,4.887-2.199,4.887-4.887v-6.555h4.539
											c5.219,0,9.489-4.861,9.489-10.803v-12.168C529.157,339.477,524.887,334.615,519.669,334.615z"/>
										<g>
											<path style="fill:#E4B0C8;" d="M507.299,355.901c0,2.429,1.969,4.398,4.398,4.398c2.429,0,4.398-1.969,4.398-4.398
												c0-2.429-1.969-4.398-4.398-4.398C509.268,351.503,507.299,353.472,507.299,355.901z"/>
											<path style="fill:#E4B0C8;" d="M527.978,352.92c0.268,0,0.527,0.035,0.776,0.094v4.562c0,0.682-0.025,1.341-0.164,1.983
												c-0.184,0.031-0.42,0.057-0.613,0.057c-1.849,0-3.348-1.499-3.348-3.348C524.63,354.419,526.129,352.92,527.978,352.92z"
												/>
										</g>
										<g>
											<g>
												<path style="fill:#0C0C0C;" d="M513.449,349.394c0,0.977,0.792,1.77,1.769,1.77s1.769-0.792,1.769-1.77
													c0-0.977-0.792-1.769-1.769-1.769S513.449,348.417,513.449,349.394z"/>
												<path style="fill:#0C0C0C;" d="M525.033,349.135c0,0.834,0.676,1.51,1.51,1.51c0.834,0,1.51-0.676,1.51-1.51
													c0-0.834-0.676-1.51-1.51-1.51C525.71,347.625,525.033,348.301,525.033,349.135z"/>
											</g>
											<g>
												<path style="fill:#FFF7F7;" d="M523.608,357.268c0,0-0.889,2.591-2.769,2.769c-1.88,0.178-3.353-1.905-3.455-3.531
													L523.608,357.268z"/>
												<g>
													<path style="fill:#0C0C0C;" d="M523.069,357.12c-0.023,0.065-0.049,0.129-0.075,0.193
														c0.066-0.166-0.03,0.066-0.055,0.12c-0.047,0.101-0.097,0.202-0.15,0.301c-0.253,0.477-0.522,0.871-0.914,1.228
														c-0.41,0.373-0.945,0.601-1.525,0.514c-0.632-0.095-1.166-0.506-1.566-0.984c-0.457-0.547-0.791-1.276-0.843-1.985
														c-0.186,0.186-0.372,0.372-0.558,0.558c1.817,0.222,3.633,0.445,5.45,0.667c0.258,0.031,0.516,0.063,0.774,0.095
														c0.3,0.037,0.558-0.283,0.558-0.558c0-0.332-0.258-0.521-0.558-0.558c-1.817-0.223-3.633-0.445-5.45-0.668
														c-0.258-0.032-0.516-0.063-0.774-0.095c-0.285-0.035-0.579,0.284-0.558,0.558c0.126,1.682,1.253,3.447,2.913,3.967
														c1.626,0.51,3.026-0.528,3.836-1.861c0.228-0.375,0.428-0.781,0.571-1.196
														C524.381,356.737,523.303,356.444,523.069,357.12z"/>
												</g>
											</g>
											<polygon style="fill:#DB7294;" points="521.356,347.625 520.994,353.65 523.871,351.897 											"/>
										</g>
										<path d="M500.049,333.002c0.002-0.003,0.004-0.005,0.007-0.008c0.309-4.527,2.893-8.719,6.212-8.779
											c7.322-0.133,7.181,5.325,7.181,5.325c12.506-15.442,28.628-6.257,23.436,5.076c-5.192,11.333-25.256,9.567-25.256,9.567
											c-1.028,0.025-1.986-0.331-2.852-0.157c-2.379,0.48-4.037,3.408-4.755,7.138
											C502.242,360.422,495.295,340.193,500.049,333.002z"/>
										<g>
											<path d="M498.691,346.834c1.172,0,2.276,0.289,3.25,0.793v1.922c-0.908-0.675-2.031-1.08-3.25-1.08
												c-2.995,0-5.432,2.414-5.432,5.381c0,2.968,2.437,5.382,5.432,5.382c1.22,0,2.343-0.405,3.25-1.08v1.922
												c-0.974,0.504-2.078,0.793-3.25,0.793c-3.897,0-7.067-3.147-7.067-7.016
												C491.625,349.981,494.795,346.834,498.691,346.834z"/>
											<g>
												<path style="fill:#FFFFFF;" d="M492.442,353.849c0,3.423,2.798,6.199,6.25,6.199c3.451,0,6.249-2.775,6.249-6.199
													s-2.798-6.199-6.249-6.199C495.24,347.651,492.442,350.426,492.442,353.849z"/>
												<g>
													<g>
														<path style="fill:#020202;" d="M502.76,354.668c0.034-0.536-0.054-1.106-0.2-1.619
															c-0.295-1.039-0.96-1.986-1.961-2.446c-0.807-0.371-1.698-0.457-2.576-0.365c-0.357,0.037-0.706,0.29-0.688,0.688
															c0.015,0.341,0.305,0.728,0.688,0.688c0.373-0.039,0.749-0.051,1.122-0.013c0.017,0.002,0.107,0.022,0.115,0.013
															c-0.027,0.028-0.157-0.024-0.005,0.002c0.071,0.012,0.142,0.027,0.212,0.043c0.145,0.034,0.285,0.08,0.425,0.129
															c0.176,0.062-0.121-0.064,0.045,0.019c0.055,0.027,0.109,0.053,0.163,0.083c0.052,0.029,0.103,0.059,0.153,0.09
															c0.025,0.016,0.148,0.122,0.171,0.117c-0.039,0.007-0.136-0.111-0.046-0.035c0.021,0.018,0.043,0.035,0.064,0.054
															c0.041,0.036,0.082,0.073,0.121,0.111c0.079,0.077,0.148,0.199,0.236,0.261c-0.115-0.082-0.082-0.112-0.032-0.04
															c0.012,0.017,0.024,0.034,0.036,0.051c0.029,0.042,0.058,0.085,0.085,0.128c0.059,0.093,0.112,0.19,0.161,0.289
															c0.024,0.048,0.043,0.099,0.068,0.147c0.039,0.075-0.071-0.179-0.03-0.071c0.009,0.022,0.018,0.044,0.027,0.067
															c0.039,0.1,0.073,0.202,0.104,0.305c0.051,0.173,0.092,0.349,0.122,0.526c0.007,0.039,0.012,0.077,0.019,0.116
															c0.024,0.151-0.022-0.198-0.007-0.05c0.008,0.074,0.016,0.147,0.022,0.221c0.012,0.163,0.021,0.329,0.01,0.492
															c-0.023,0.36,0.333,0.704,0.688,0.688C502.464,355.339,502.735,355.054,502.76,354.668L502.76,354.668z"/>
													</g>
												</g>
											</g>
										</g>
									</g>
								</g>
							</g>
							<g>
								<defs>
									<path id="SVGID_00000132789456497901560320000003722448051935880635_" d="M570.6,405.607H461.727
										c-5.162,0-9.347-4.185-9.347-9.347v-58.517c0-5.162,4.185-9.347,9.347-9.347H570.6c5.162,0,9.347,4.185,9.347,9.347v58.517
										C579.947,401.422,575.762,405.607,570.6,405.607z"/>
								</defs>
								<clipPath id="SVGID_00000016780519926675195630000004556422903567984054_">
									<use xlink:href="#SVGID_00000132789456497901560320000003722448051935880635_"  style="overflow:visible;"/>
								</clipPath>
								<g style="clip-path:url(#SVGID_00000016780519926675195630000004556422903567984054_);">
									<g>
										<path style="fill:#E4B0C8;stroke:#020106;stroke-miterlimit:10;" d="M457.178,437.625
											c4.816-37.68,37.624-65.319,59.763-57.302c17.616,6.379,25.342,41.698,27.931,57.302H457.178z"/>
										<path style="fill:#DB7294;stroke:#020106;stroke-miterlimit:10;" d="M502.143,383.193h12.205
											c2.624,0,4.752-2.127,4.752-4.752v-1.255c0-2.624-2.128-4.752-4.752-4.752h-12.205c-2.624,0-4.752,2.128-4.752,4.752
											v1.255C497.391,381.066,499.519,383.193,502.143,383.193z"/>
										<g>
											<line style="fill:none;stroke:#020106;stroke-miterlimit:10;" x1="516.941" y1="372.978" x2="516.941" y2="382.652"/>
											<line style="fill:none;stroke:#020106;stroke-miterlimit:10;" x1="514.501" y1="372.435" x2="514.501" y2="383.193"/>
											<line style="fill:none;stroke:#020106;stroke-miterlimit:10;" x1="511.932" y1="372.435" x2="511.932" y2="383.193"/>
											<line style="fill:none;stroke:#020106;stroke-miterlimit:10;" x1="509.363" y1="372.435" x2="509.363" y2="383.193"/>
											<line style="fill:none;stroke:#020106;stroke-miterlimit:10;" x1="506.794" y1="372.435" x2="506.794" y2="383.193"/>
											<line style="fill:none;stroke:#020106;stroke-miterlimit:10;" x1="504.225" y1="372.435" x2="504.225" y2="383.193"/>
											<line style="fill:none;stroke:#020106;stroke-miterlimit:10;" x1="501.656" y1="372.435" x2="501.656" y2="383.193"/>
											<line style="fill:none;stroke:#020106;stroke-miterlimit:10;" x1="499.087" y1="373.283" x2="499.087" y2="382.349"/>
										</g>
									</g>
									<g>
										<g>
											<path style="fill:#FFFFFF;stroke:#020106;stroke-miterlimit:10;" d="M473.085,349.988c1.147-0.766,2.316,4.015,2.9,7.184
												c-0.211-2.616-0.438-6.853,0.547-7.158c1.048-0.323,2.108,4.276,2.615,7.097c-0.211-2.615-0.465-7.018,0.466-7.095
												c1.194-0.099,2.082,3.951,2.591,7.097c-0.297-2.749-0.457-6.097,0.491-6.286c1.622-0.324,2.108,1.622,2.919,6.163
												c0.811,4.541,2.108,7.622,8.271,10.217c5.392,2.27,11.778,5.534,17.744,25.327l-17.416,0.825
												c-0.021-0.502-0.045-1.003-0.078-1.501c-1.21-18.488-11.602-17.839-16.529-21.569
												C472.678,366.557,470.856,351.475,473.085,349.988z"/>
											<path style="fill:#E4B0C8;stroke:#020106;stroke-miterlimit:10;" d="M481.962,437.625
												c7.802-10.08,13.034-28.361,12.227-44.73l17.22-1.07c0.927,3.008,1.845,6.396,2.748,10.248
												c3.846,16.417,1.343,28.377-1.451,35.552H481.962z"/>
											<g>
												<path style="fill:#DB7294;stroke:#020106;stroke-miterlimit:10;" d="M512.86,396.884h-18.589
													c0.015-1.691-0.028-3.37-0.136-5.027c-0.081-1.232-0.205-2.373-0.362-3.442l16.249-0.784
													C510.977,390.318,511.925,393.375,512.86,396.884z"/>
												<g>
													<line style="fill:none;stroke:#020106;stroke-miterlimit:10;" x1="507.42" y1="387.756" x2="509.555" y2="396.884"/>
													<line style="fill:none;stroke:#020106;stroke-miterlimit:10;" x1="504.022" y1="387.92" x2="505.176" y2="396.884"/>
													<line style="fill:none;stroke:#020106;stroke-miterlimit:10;" x1="500.554" y1="387.92" x2="501.101" y2="396.884"/>
													<line style="fill:none;stroke:#020106;stroke-miterlimit:10;" x1="497.391" y1="388.24" x2="497.696" y2="396.641"/>
												</g>
											</g>
										</g>
										<g>
											<path style="fill:#FFFFFF;stroke:#000000;stroke-miterlimit:10;" d="M531.502,357.224
												c0.706-4.123-3.288-8.552-1.956-9.599c1.331-1.047,8.705,5.66,6.616,12.423c-2.09,6.764-9.691,7.962-7.022,18.079
												c0.948,3.592,3.011,8.491,5.584,13.791l-17.333,0.446c-1.132-12.146,0.068-21.053,1.461-23.974
												C520.493,364.948,530.796,361.346,531.502,357.224z"/>
											<path style="fill:#E4B0C8;stroke:#020106;stroke-miterlimit:10;" d="M529.248,437.625
												c-3.319-9.438-9.313-27.384-11.018-38.466c-0.402-2.612-0.695-5.114-0.902-7.49l16.546-1.523
												c4.727,10.026,11.611,21.929,16.352,29.247c3.63,5.603,5.542,12.429,5.731,18.232H529.248z"/>
											<g>
												<path style="fill:#DB7294;stroke:#000000;stroke-miterlimit:10;" d="M517.868,396.61
													c-0.413-3.14-0.671-6.104-0.807-8.854h15.713c1.197,2.663,2.581,5.505,4.068,8.397L517.868,396.61z"/>
												<g>
													<line style="fill:none;stroke:#000000;stroke-miterlimit:10;" x1="530.544" y1="387.92" x2="532.873" y2="396.61"/>
													<line style="fill:none;stroke:#000000;stroke-miterlimit:10;" x1="527.216" y1="387.92" x2="528.34" y2="396.358"/>
													<line style="fill:none;stroke:#000000;stroke-miterlimit:10;" x1="524.19" y1="387.756" x2="524.62" y2="396.447"/>
													<line style="fill:none;stroke:#000000;stroke-miterlimit:10;" x1="520.56" y1="387.756" x2="521.224" y2="396.529"/>
												</g>
											</g>
										</g>
									</g>
								</g>
							</g>
						</g>
						<path style="fill:none;stroke:#000000;stroke-miterlimit:10;" d="M570.6,405.607H461.727c-5.162,0-9.347-4.185-9.347-9.347
							v-58.517c0-5.162,4.185-9.347,9.347-9.347H570.6c5.162,0,9.347,4.185,9.347,9.347v58.517
							C579.947,401.422,575.762,405.607,570.6,405.607z"/>
					</g>
				</g>
			</g>
			<g>
				<g>
					<g>
						<path style="fill:#EEDA36;" d="M664.171,261.468H445.924c-7.517,0-13.61-6.094-13.61-13.61V92.152
							c0-7.517,6.093-13.61,13.61-13.61h218.247c7.517,0,13.61,6.093,13.61,13.61v155.706
							C677.781,255.375,671.687,261.468,664.171,261.468z"/>
						<path style="fill:#EEDA36;" d="M557.972,284.433h-21.39c-3.83,0-6.406-3.923-4.885-7.438l11.527-26.62l9.863-22.778
							c1.852-4.277,7.917-4.277,9.769,0l9.863,22.778l11.527,26.62c1.522,3.515-1.055,7.438-4.885,7.438H557.972z"/>
					</g>
					<path style="fill:none;stroke:#000000;stroke-miterlimit:10;" d="M564.496,240.946c0,3.471-2.814,6.284-6.284,6.284
						c-3.471,0-6.284-2.814-6.284-6.284s2.814-6.284,6.284-6.284C561.683,234.662,564.496,237.476,564.496,240.946z"/>
				</g>
				<g>
					<path style="fill:#FFFFFF;stroke:#000000;stroke-miterlimit:10;" d="M660.9,227.121H453.227c-3.449,0-6.245-2.796-6.245-6.245
						V98.834c0-3.449,2.796-6.245,6.245-6.245H660.9c3.449,0,6.245,2.796,6.245,6.245v122.043
						C667.145,224.325,664.349,227.121,660.9,227.121z"/>
					<g>
						<g>
							<path style="fill:#FFFFFF;stroke:#000000;stroke-miterlimit:10;" d="M474.747,211.032h123.491
								c7.426,0,13.447-6.02,13.447-13.447v-86.619c0-7.426-6.02-13.447-13.447-13.447H474.747c-7.426,0-13.447,6.02-13.447,13.447
								v86.619C461.3,205.012,467.32,211.032,474.747,211.032z"/>
							<g>
								<g>
									<path style="fill:#DB7294;stroke:#000000;stroke-miterlimit:10;" d="M475.977,107.908c0,1.418-1.138,2.567-2.542,2.567
										c-1.404,0-2.543-1.15-2.543-2.567c0-1.418,1.138-2.567,2.543-2.567C474.839,105.341,475.977,106.49,475.977,107.908z"/>
									<path style="fill:#EEDA36;stroke:#000000;stroke-miterlimit:10;" d="M486.105,107.908c0,1.418-1.138,2.567-2.542,2.567
										c-1.404,0-2.543-1.15-2.543-2.567c0-1.418,1.138-2.567,2.543-2.567C484.966,105.341,486.105,106.49,486.105,107.908z"/>
									<path style="fill:#672ED6;stroke:#000000;stroke-miterlimit:10;" d="M496.232,107.908c0,1.418-1.138,2.567-2.542,2.567
										c-1.404,0-2.543-1.15-2.543-2.567c0-1.418,1.138-2.567,2.543-2.567C495.093,105.341,496.232,106.49,496.232,107.908z"/>
								</g>
								<line style="fill:#FFFFFF;stroke:#000000;stroke-miterlimit:10;" x1="461.646" y1="116.921" x2="611.685" y2="116.921"/>
							</g>
						</g>
						<g>
							<g>
								<rect x="575.139" y="164.491" style="fill:none;stroke:#9E88E5;stroke-miterlimit:10;" width="28.011" height="17.458"/>
								<g>
									<line style="fill:none;stroke:#9E88E5;stroke-miterlimit:10;" x1="578.576" y1="169.077" x2="598.909" y2="169.077"/>
									<line style="fill:none;stroke:#9E88E5;stroke-miterlimit:10;" x1="578.576" y1="172.256" x2="598.909" y2="172.256"/>
									<line style="fill:none;stroke:#9E88E5;stroke-miterlimit:10;" x1="578.576" y1="175.435" x2="598.909" y2="175.435"/>
								</g>
							</g>
							<g>
								<path style="fill:#DB7294;" d="M541.958,146.55v-20.488c-11.315,0-20.488,9.173-20.488,20.488
									c0,11.315,9.173,20.488,20.488,20.488s20.488-9.173,20.488-20.488c0-1.483-0.166-2.926-0.466-4.32L541.958,146.55z"/>
								<path style="fill:#E4B0C8;" d="M564.496,138.635c-1.985-9.239-10.191-16.168-20.023-16.168v20.488L564.496,138.635z"/>
							</g>
							<g>
								<g>
									<g>
										<path style="fill:none;stroke:#9E88E5;stroke-miterlimit:10;" d="M503.426,127.27h-24.559
											c-0.953,0-1.726-0.773-1.726-1.726l0,0c0-0.953,0.773-1.726,1.726-1.726h24.559c0.953,0,1.726,0.773,1.726,1.726l0,0
											C505.152,126.497,504.38,127.27,503.426,127.27z"/>
										<g>
											<line style="fill:none;stroke:#9E88E5;stroke-miterlimit:10;" x1="478.909" y1="129.835" x2="502.679" y2="129.835"/>
											<line style="fill:none;stroke:#9E88E5;stroke-miterlimit:10;" x1="478.909" y1="133.014" x2="502.679" y2="133.014"/>
											<line style="fill:none;stroke:#9E88E5;stroke-miterlimit:10;" x1="478.909" y1="136.192" x2="502.679" y2="136.192"/>
										</g>
									</g>
									<polyline style="fill:none;stroke:#9E88E5;stroke-miterlimit:10;" points="506.92,126.087 515.896,126.087 
										528.816,137.922 									"/>
								</g>
								<g>
									<g>
										<path style="fill:none;stroke:#9E88E5;stroke-miterlimit:10;" d="M601.424,129.27h-24.559
											c-0.953,0-1.726-0.773-1.726-1.726l0,0c0-0.953,0.773-1.726,1.726-1.726h24.559c0.953,0,1.726,0.773,1.726,1.726l0,0
											C603.15,128.497,602.378,129.27,601.424,129.27z"/>
										<g>
											<g>
												<line style="fill:none;stroke:#9E88E5;stroke-miterlimit:10;" x1="576.907" y1="131.834" x2="600.677" y2="131.834"/>
												<line style="fill:none;stroke:#9E88E5;stroke-miterlimit:10;" x1="576.907" y1="135.013" x2="600.677" y2="135.013"/>
												<line style="fill:none;stroke:#9E88E5;stroke-miterlimit:10;" x1="576.907" y1="138.192" x2="600.677" y2="138.192"/>
											</g>
											<g>
												<line style="fill:none;stroke:#9E88E5;stroke-miterlimit:10;" x1="576.907" y1="141.485" x2="600.677" y2="141.485"/>
												<line style="fill:none;stroke:#9E88E5;stroke-miterlimit:10;" x1="576.907" y1="144.664" x2="600.677" y2="144.664"/>
												<line style="fill:none;stroke:#9E88E5;stroke-miterlimit:10;" x1="576.907" y1="147.843" x2="600.677" y2="147.843"/>
											</g>
										</g>
									</g>
									<polyline style="fill:none;stroke:#9E88E5;stroke-miterlimit:10;" points="556.926,135.585 565.606,128.473 
										573.299,128.473 									"/>
								</g>
							</g>
							<g>
								<g>
									<polyline style="fill:none;stroke:#9E88E5;stroke-miterlimit:10;" points="480.697,154.696 480.697,194.958 
										541.635,194.958 									"/>
									<g>
										<polygon style="fill:#9E88E5;" points="480.697,154.922 478.522,154.922 479.609,153.039 480.697,151.155 
											481.784,153.039 482.871,154.922 										"/>
										<polygon style="fill:#9E88E5;" points="540.985,194.958 540.985,192.783 542.868,193.871 544.752,194.958 
											542.868,196.046 540.985,197.133 										"/>
									</g>
								</g>
								<polyline style="fill:none;stroke:#EEDA36;stroke-miterlimit:10;" points="475.654,191.632 490.471,178.281 
									502.663,191.391 518.039,163.227 529.282,190.708 								"/>
								<g>
									<g>
										<path style="fill:none;stroke:#DB7294;stroke-miterlimit:10;" d="M470.569,171.771c0,0,0.539-0.56,1.444-1.382"/>
										<path style="fill:none;stroke:#DB7294;stroke-miterlimit:10;stroke-dasharray:3.8539,3.8539;" d="M474.98,167.931
											c3.94-2.959,9.632-6.007,13.25-2.521c5.989,5.77,4.574,10.208,16.599,7.619c11.307-2.434,25.194,0.933,29.272,20.232"/>
										<path style="fill:none;stroke:#DB7294;stroke-miterlimit:10;" d="M534.461,195.155c0.109,0.643,0.207,1.303,0.296,1.979"
											/>
									</g>
								</g>
							</g>
						</g>
					</g>
					<g>
						<g>
							<g>
								<defs>
									<path id="SVGID_00000157301812142812839970000009086433068644011911_" d="M660.9,227.121H521.47
										c-3.449,0,3.927-23.617,3.927-27.066l26.532-74.511c0-3.449,47.773,1.999,51.222,1.999l57.75-34.955
										c3.449,0,6.245,2.796,6.245,6.245v122.043C667.145,224.325,664.349,227.121,660.9,227.121z"/>
								</defs>
								<clipPath id="SVGID_00000005967059593450424100000002146434681589361849_">
									<use xlink:href="#SVGID_00000157301812142812839970000009086433068644011911_"  style="overflow:visible;"/>
								</clipPath>
								<g style="clip-path:url(#SVGID_00000005967059593450424100000002146434681589361849_);">
									<g>
										<path style="fill:#672ED6;stroke:#000000;stroke-miterlimit:10;" d="M660.118,149.056c0,0,36.989,14.46,56.59,76.997
											l-25.052,12.428l-18.543-47.343L660.118,149.056z"/>
										<g>
											<g>
												<path style="fill:#FFFFFF;" d="M549.845,161.44c0,0-6.3-4.047-5.521-5.979c0.779-1.932,2.612-0.848,2.612-0.848
													s-1.878-1.155-1.007-2.427c0.872-1.273,2.05-0.801,2.05-0.801s-1.33-1.953-0.048-2.677
													c1.282-0.725,3.209-0.262,3.209-0.262s-0.739-1.624-0.703-2.196c0.036-0.572,0.866-1.838,3.551-1.214
													c2.685,0.624,8.435,3.819,10.37,4.805c1.936,0.986,4.123,3.275,4.186,2.535c0.062-0.74,0.893-5.462,2.726-6.84
													c1.832-1.379,2.565-1.6,2.89,1.022c0.326,2.622,0.238,9.922,3.787,15.302c3.548,5.38,4.763,8.965,8.512,13.324
													c3.75,4.359,5.474,6.555,5.474,6.555l-16.905,13.756c0,0-16.399-24.682-16.519-24.848
													C558.389,170.479,553.067,163.946,549.845,161.44z"/>
												<g>
													<path style="fill:none;stroke:#000000;stroke-miterlimit:10;" d="M546.377,154.48c0,0-2.098-3.419,1.831-3.002
														c3.929,0.417,9.256,4.054,11.822,5.981"/>
													<path style="fill:none;stroke:#000000;stroke-miterlimit:10;" d="M564.311,165.201c0,0-1.437-4.39,4.826-6.21
														c0,0-2.387-9.319,2.134-13.457c4.52-4.138,2.059,6.518,5.083,13.008c3.024,6.49,6.449,12.753,9.666,16.169
														c3.218,3.415,5.999,7.141,5.999,7.141l-17.093,13.724c0,0-5.84-8.876-14.85-22.651
														c-9.01-13.775-16.962-14.079-15.752-17.463c1.489-4.162,12.106,5.637,12.106,5.637"/>
													<path style="fill:none;stroke:#000000;stroke-miterlimit:10;" d="M548.208,151.478c0,0-2.025-2.487,0.547-3.143
														c0.426-0.109,0.959-0.116,1.573-0.037c3.093,0.4,8.233,2.999,11.984,5.897"/>
													<path style="fill:none;stroke:#000000;stroke-miterlimit:10;" d="M568.569,153.076c0,0-7.356-6.866-15.751-8.002
														c-3.035-0.411-2.91,2.616,0.072,3.878"/>
												</g>
											</g>
											<g>
												<path style="fill:#672ED6;stroke:#000000;stroke-miterlimit:10;" d="M604.241,190.372
													c-2.379-1.601-4.809-3.692-7.136-5.953c-7.563-7.352-14.024-16.51-14.024-16.51l-18.585,15.917
													c0,0,20.27,31.459,32.441,35.391c12.172,3.932,39.996-27.714,39.996-27.714l2.189-41.63c0,0-5.234,2.811-9.432,6.601
													c-6.894,6.225-18.936,17.348-32.586,27.945"/>
												<g>
													<path style="fill:#FFFFFF;stroke:#000000;stroke-miterlimit:10;" d="M589.145,175.723
														c-3.628-4.364-6.064-7.814-6.064-7.814l-18.585,15.917c0,0,2.357,3.656,5.941,8.628L589.145,175.723z"/>
													<path style="fill:#FFFFFF;stroke:#000000;stroke-miterlimit:10;" d="M584.579,173.948c0,0.698-0.566,1.264-1.264,1.264
														c-0.698,0-1.264-0.566-1.264-1.264c0-0.698,0.566-1.264,1.264-1.264C584.013,172.684,584.579,173.25,584.579,173.948z"
														/>
												</g>
											</g>
										</g>
									</g>
									<g>
										<path style="fill:#672ED6;" d="M689.603,228.855c0.003-0.346,0-7.436,0-7.783c0-40.999-17.443-74.235-38.959-74.235
											c-21.516,0-38.959,33.236-38.959,74.235c0,0.347-0.003,7.437,0,7.783H689.603z"/>
										<line style="fill:none;stroke:#000000;stroke-miterlimit:10;" x1="650.517" y1="165.445" x2="650.517" y2="228.855"/>
										<path style="fill:#FFFFFF;stroke:#000000;stroke-miterlimit:10;" d="M650.644,166.11l15.021-13.547
											c-4.623-3.685-9.697-5.726-15.021-5.726c-5.148,0-10.527,2.266-15.026,5.723L650.644,166.11z"/>
										<path style="fill:none;stroke:#000000;stroke-miterlimit:10;" d="M617.281,182.715
											c-3.552,11.194-5.597,24.321-5.597,38.357c0,0.347-0.003,7.437,0,7.783h77.918c0.003-0.346,0-7.436,0-7.783
											c0-14.362-2.141-27.772-5.847-39.134"/>
										<path style="fill:none;stroke:#000000;stroke-miterlimit:10;" d="M665.669,152.559c-4.624-3.686-9.699-5.722-15.025-5.722
											c-5.306,0-10.365,2.021-14.975,5.682"/>
									</g>
								</g>
							</g>
						</g>
					</g>
					<path style="fill:none;stroke:#000000;stroke-miterlimit:10;" d="M660.9,227.121H453.227c-3.449,0-6.245-2.796-6.245-6.245
						V98.834c0-3.449,2.796-6.245,6.245-6.245H660.9c3.449,0,6.245,2.796,6.245,6.245v122.043
						C667.145,224.325,664.349,227.121,660.9,227.121z"/>
					<g>
						<g>
							<path style="fill:#FEFEFF;stroke:#000000;stroke-miterlimit:10;" d="M666.107,156.577l-8.288-12.447
								c-1.622-2.437-4.673-3.345-7.302-2.365c-2.629-0.98-5.68-0.072-7.302,2.365l-8.288,12.447
								c-1.894,2.844-1.123,6.684,1.72,8.577l1.186,0.79c2.844,1.894,6.684,1.123,8.578-1.72l4.107-6.167l4.107,6.167
								c1.893,2.844,5.734,3.614,8.577,1.72l1.186-0.79C667.231,163.261,668.001,159.421,666.107,156.577z"/>
							<path style="fill:#FEFEFF;stroke:#000000;stroke-miterlimit:10;" d="M651.846,155.107c0,0.664-0.538,1.202-1.202,1.202
								c-0.664,0-1.202-0.538-1.202-1.202c0-0.664,0.538-1.202,1.202-1.202C651.308,153.905,651.846,154.443,651.846,155.107z"/>
						</g>
						<g>
							<path style="fill:none;stroke:#000000;stroke-width:2;stroke-miterlimit:10;" d="M666.995,125.691
								c0,3.54-2.893,6.41-6.463,6.41c-3.569,0-6.463-2.87-6.463-6.41c0-3.54,2.893-6.41,6.463-6.41
								C664.101,119.281,666.995,122.151,666.995,125.691z"/>
							<g>
								<path style="fill:#FFFFFF;stroke:#000000;stroke-miterlimit:10;" d="M638.839,105.8h8.118c5.397,0,9.813,5.027,9.813,11.172
									v12.583c0,0.355-0.018,0.704-0.047,1.051c0.088,0.371,0.139,0.756,0.139,1.153v7.66v0.427v7.66
									c0,2.78-2.274,5.054-5.054,5.054h-3.22c-2.779,0-5.054-2.274-5.054-5.054v-6.779h-4.694c-5.397,0-9.812-5.027-9.812-11.172
									v-12.583C629.026,110.828,633.442,105.8,638.839,105.8z"/>
								<g>
									<path d="M654.642,125.484l-1.498-9.856c0,0-27.269,3.418-36.109-9.828c-8.84-13.246,0.45-18.49,4.944-17.741
										c4.495,0.749,9.751,7.192,9.751,7.192s-4.184-5.694,0-6.593c4.184-0.899,8.805,3.446,11.214,7.941
										c0,0,17.975-1.676,24.051,9.201c6.077,10.877,1.152,18.593-9.962,29.83l-0.743-6.285L654.642,125.484z"/>
									<path d="M685.918,93.862c0,6.379-5.171,11.549-11.549,11.549c-6.379,0-11.549-5.171-11.549-11.549
										c0-6.379,5.171-11.549,11.549-11.549C680.747,82.313,685.918,87.484,685.918,93.862z"/>
								</g>
								<g>
									<g>
										<path style="fill:#E4B0C8;" d="M652.195,127.42c0,2.574-2.086,4.66-4.66,4.66c-2.574,0-4.66-2.087-4.66-4.66
											c0-2.574,2.086-4.66,4.66-4.66C650.109,122.76,652.195,124.846,652.195,127.42z"/>
										<path style="fill:#E4B0C8;" d="M630.283,123.693c-0.284,0-0.558,0.037-0.823,0.1v4.834c0,0.722-0.076,1.426,0.07,2.106
											c0.195,0.033,0.549,0.055,0.753,0.055c1.959,0,3.547-1.588,3.547-3.547C633.831,125.281,632.242,123.693,630.283,123.693z
											"/>
									</g>
									<g>
										<g>
											<path style="fill:#141414;" d="M643.783,120.911c0,0.916-0.742,1.658-1.658,1.658c-0.916,0-1.658-0.742-1.658-1.658
												c0-0.915,0.742-1.658,1.658-1.658C643.041,119.254,643.783,119.996,643.783,120.911z"/>
											<path style="fill:#141414;" d="M632.931,120.669c0,0.781-0.634,1.415-1.415,1.415c-0.781,0-1.415-0.634-1.415-1.415
												c0-0.782,0.633-1.415,1.415-1.415C632.297,119.254,632.931,119.887,632.931,120.669z"/>
										</g>
										<g>
											<path style="fill:#F7F6F6;" d="M634.514,127.451c0,0,0.833,2.428,2.594,2.594c1.761,0.167,3.141-1.785,3.237-3.308
												L634.514,127.451z"/>
											<g>
												<path style="fill:#141414;" d="M633.975,127.599c0.321,0.927,0.894,1.836,1.677,2.433
													c1.369,1.043,3.163,0.535,4.192-0.731c0.597-0.735,0.987-1.615,1.057-2.564c0.021-0.276-0.274-0.593-0.558-0.558
													c-1.702,0.208-3.404,0.417-5.106,0.625c-0.242,0.03-0.483,0.059-0.725,0.089c-0.299,0.037-0.558,0.23-0.558,0.558
													c0,0.273,0.257,0.595,0.558,0.558c1.702-0.209,3.404-0.417,5.106-0.625c0.242-0.03,0.483-0.059,0.725-0.089
													c-0.186-0.186-0.372-0.372-0.558-0.558c-0.081,1.089-0.903,2.405-2.042,2.705c-1.078,0.283-1.857-0.554-2.348-1.416
													c-0.109-0.192-0.201-0.39-0.295-0.59c-0.042-0.089,0.043,0.117,0.005,0.011c-0.009-0.024-0.019-0.048-0.028-0.072
													c-0.009-0.024-0.018-0.048-0.026-0.072C634.818,126.628,633.739,126.918,633.975,127.599z"/>
											</g>
										</g>
										<g>
											<path style="fill:none;stroke:#672ED6;stroke-miterlimit:10;" d="M650.517,119.941c0,3.572-2.591,6.468-5.786,6.468
												c-3.196,0-5.786-2.896-5.786-6.468c0-3.572,2.591-6.468,5.786-6.468C647.926,113.473,650.517,116.369,650.517,119.941z"
												/>
											<ellipse style="fill:none;stroke:#672ED6;stroke-miterlimit:10;" cx="630.309" cy="119.131" rx="4.764" ry="5.784"/>
											<polygon style="fill:#D96980;" points="636.933,119.281 636.933,124.898 633.989,123.104 											"/>
											<path style="fill:none;stroke:#672ED6;stroke-miterlimit:10;" d="M634.923,120.86c0,0,2.331-0.978,4.021,0.419"/>
										</g>
									</g>
								</g>
								<g>
									<path style="fill:#FFFFFF;" d="M666.995,125.691c0,3.54-2.893,6.41-6.463,6.41c-3.569,0-6.463-2.87-6.463-6.41
										c0-3.54,2.893-6.41,6.463-6.41C664.101,119.281,666.995,122.151,666.995,125.691z"/>
									<g>
										<g>
											<path style="fill:#090909;" d="M657.724,126.538c-0.009-0.138-0.004-0.278,0.004-0.416
												c0.004-0.064,0.009-0.129,0.015-0.193c0.003-0.036,0.008-0.071,0.011-0.107c0.02-0.186-0.029,0.175-0.004,0.024
												c0.029-0.178,0.062-0.355,0.108-0.53c0.024-0.091,0.051-0.181,0.081-0.27c0.017-0.051,0.035-0.101,0.054-0.151
												c0.009-0.023,0.018-0.046,0.027-0.069c0.044-0.114,0.001,0.015-0.023,0.054c0.121-0.192,0.199-0.408,0.331-0.597
												c0.012-0.017,0.025-0.035,0.037-0.052c0.057-0.081,0.072-0.025-0.029,0.037c0.039-0.024,0.075-0.091,0.105-0.125
												c0.082-0.092,0.17-0.179,0.263-0.259c0.017-0.015,0.035-0.029,0.053-0.044c0.065-0.056,0.104-0.031-0.029,0.022
												c0.048-0.019,0.102-0.073,0.146-0.102c0.115-0.075,0.234-0.138,0.357-0.198c0.018-0.009,0.138-0.06,0.024-0.013
												c-0.119,0.049,0.044-0.016,0.066-0.024c0.078-0.028,0.156-0.054,0.236-0.076c0.083-0.024,0.168-0.044,0.253-0.062
												c0.029-0.006,0.059-0.012,0.088-0.017c0.03-0.006,0.06-0.011,0.09-0.016c0.076-0.011,0.061-0.01-0.044,0.005
												c0.071-0.036,0.214-0.023,0.291-0.028c0.103-0.007,0.207-0.01,0.31-0.01c0.227-0.001,0.453,0.014,0.678,0.037
												c0.359,0.037,0.703-0.343,0.688-0.688c-0.018-0.405-0.303-0.648-0.688-0.688c-1.391-0.145-2.912,0.16-3.839,1.289
												c-0.634,0.771-0.934,1.717-1.02,2.701c-0.016,0.188-0.027,0.38-0.015,0.569c0.023,0.359,0.3,0.706,0.688,0.688
												C657.389,127.21,657.749,126.922,657.724,126.538L657.724,126.538z"/>
										</g>
									</g>
								</g>
							</g>
						</g>
					</g>
				</g>
			</g>
		</g>
		<g>
			<g>
				<path style="fill:#FFFFFF;stroke:#000000;stroke-miterlimit:10;" d="M547.674,63.397h39.999c5.11,0,9.253,4.143,9.253,9.253
					V88.98v5.711v17.891l-9.408-8.638h-39.844c-5.11,0-9.253-4.143-9.253-9.253V72.65C538.421,67.54,542.564,63.397,547.674,63.397z
					"/>
				
					<text transform="matrix(1 0 0 1 557.2982 94.4555)" style="fill:none;stroke:#000000; font-family:'Montserrat-ExtraBold'; font-size:32.1688px;">?</text>
			</g>
			<g>
				<g>
					<path style="fill:#FFFFFF;stroke:#000000;stroke-miterlimit:10;" d="M444.704,208.635h-46.157
						c-5.897,0-10.678,4.781-10.678,10.678v18.844v6.59v20.646l10.856-9.968h45.979c5.897,0,10.678-4.781,10.678-10.678v-25.434
						C455.382,213.416,450.602,208.635,444.704,208.635z"/>
					<g>
						<path style="fill:#FFFFFF;stroke:#000000;stroke-miterlimit:10;" d="M411.063,232.878c0,2.564-2.078,4.643-4.642,4.643
							c-2.564,0-4.643-2.079-4.643-4.643s2.079-4.643,4.643-4.643C408.985,228.235,411.063,230.314,411.063,232.878z"/>
						<path style="fill:#FFFFFF;stroke:#000000;stroke-miterlimit:10;" d="M427.213,232.878c0,2.564-2.078,4.643-4.642,4.643
							s-4.643-2.079-4.643-4.643s2.079-4.643,4.643-4.643S427.213,230.314,427.213,232.878z"/>
						<path style="fill:#FFFFFF;stroke:#000000;stroke-miterlimit:10;" d="M443.363,232.878c0,2.564-2.078,4.643-4.642,4.643
							s-4.643-2.079-4.643-4.643s2.079-4.643,4.643-4.643S443.363,230.314,443.363,232.878z"/>
					</g>
				</g>
				<g>
					<path style="fill:#FFFFFF;stroke:#000000;stroke-miterlimit:10;" d="M458.004,193.435h-46.158
						c-5.897,0-10.678,4.781-10.678,10.678v18.844v6.59v20.646l10.856-9.968h45.979c5.897,0,10.678-4.781,10.678-10.678v-25.434
						C468.682,198.216,463.902,193.435,458.004,193.435z"/>
					<g>
						<path style="fill:#FFFFFF;stroke:#000000;stroke-miterlimit:10;" d="M424.363,217.678c0,2.564-2.078,4.643-4.642,4.643
							s-4.643-2.079-4.643-4.643s2.079-4.643,4.643-4.643S424.363,215.114,424.363,217.678z"/>
						<path style="fill:#FFFFFF;stroke:#000000;stroke-miterlimit:10;" d="M440.513,217.678c0,2.564-2.079,4.643-4.643,4.643
							s-4.643-2.079-4.643-4.643s2.079-4.643,4.643-4.643S440.513,215.114,440.513,217.678z"/>
						<path style="fill:#FFFFFF;stroke:#000000;stroke-miterlimit:10;" d="M456.663,217.678c0,2.564-2.079,4.643-4.643,4.643
							s-4.643-2.079-4.643-4.643s2.079-4.643,4.643-4.643S456.663,215.114,456.663,217.678z"/>
					</g>
				</g>
			</g>
			<g>
				<path style="fill:#FFFFFF;stroke:#000000;stroke-miterlimit:10;" d="M238.5,105.143h-42.584c-5.441,0-9.851,4.411-9.851,9.851
					v17.385v6.08v19.047l10.016-9.196H238.5c5.441,0,9.851-4.41,9.851-9.851v-23.465C248.351,109.554,243.94,105.143,238.5,105.143z
					"/>
				<g>
					<path style="fill:#FFFFFF;stroke:#000000;stroke-miterlimit:10;" d="M207.463,127.509c0,2.366-1.918,4.283-4.283,4.283
						c-2.366,0-4.283-1.918-4.283-4.283s1.918-4.283,4.283-4.283C205.546,123.226,207.463,125.144,207.463,127.509z"/>
					<path style="fill:#FFFFFF;stroke:#000000;stroke-miterlimit:10;" d="M222.363,127.509c0,2.366-1.918,4.283-4.283,4.283
						s-4.283-1.918-4.283-4.283s1.918-4.283,4.283-4.283S222.363,125.144,222.363,127.509z"/>
					<path style="fill:#FFFFFF;stroke:#000000;stroke-miterlimit:10;" d="M237.262,127.509c0,2.366-1.918,4.283-4.283,4.283
						c-2.366,0-4.283-1.918-4.283-4.283s1.918-4.283,4.283-4.283C235.345,123.226,237.262,125.144,237.262,127.509z"/>
				</g>
			</g>
			<g>
				<path style="fill:#FFFFFF;stroke:#000000;stroke-miterlimit:10;" d="M621.418,302.215h-42.584c-5.441,0-9.851,4.411-9.851,9.851
					v17.385v6.08v19.047l10.016-9.196h42.419c5.441,0,9.851-4.41,9.851-9.851v-23.465
					C631.269,306.625,626.859,302.215,621.418,302.215z"/>
				<g>
					<path style="fill:#FFFFFF;stroke:#000000;stroke-miterlimit:10;" d="M590.381,324.581c0,2.366-1.918,4.283-4.283,4.283
						c-2.365,0-4.283-1.918-4.283-4.283s1.918-4.283,4.283-4.283C588.464,320.297,590.381,322.215,590.381,324.581z"/>
					<circle style="fill:#FFFFFF;stroke:#000000;stroke-miterlimit:10;" cx="600.998" cy="324.581" r="4.283"/>
					<path style="fill:#FFFFFF;stroke:#000000;stroke-miterlimit:10;" d="M620.181,324.581c0,2.366-1.918,4.283-4.283,4.283
						s-4.283-1.918-4.283-4.283s1.918-4.283,4.283-4.283S620.181,322.215,620.181,324.581z"/>
				</g>
			</g>
			<g>
				<g>
					<path style="fill:#EEDA36;stroke:#000000;stroke-miterlimit:10;" d="M111.107,267.518c-0.966-5.402-4.015-8.941-7.428-11.169
						c-5.777-3.771-13.448-3.771-19.224,0c-3.413,2.228-6.462,5.767-7.428,11.169c-1.784,9.975,7,15.341,8.646,17.351
						c0,0,1.114,0.923,1.646,2.011c0.133,0.272,0.276,1.131,0.442,2.283h6.307h6.306c0.166-1.152,0.308-2.01,0.441-2.283
						c0.532-1.088,1.646-2.011,1.646-2.011C104.107,282.859,112.891,277.494,111.107,267.518z"/>
					<g>
						<path style="fill:#FFFFFF;" d="M91.424,290.231c0,0,0.003-9.458-0.691-10.808c-0.695-1.35-3.878-6.076-4.419-7.072
							c-0.541-0.996,0.568-2.154,1.416-0.68c0.725,1.26,3.822,5.573,4.513,7.338c0.691,1.764,1.282,11.695,1.282,11.695
							L91.424,290.231z"/>
						<path style="fill:#FFFFFF;" d="M96.665,290.231c0,0-0.003-9.458,0.691-10.808c0.694-1.35,3.877-6.076,4.419-7.072
							c0.541-0.996-0.568-2.154-1.417-0.68c-0.726,1.26-3.822,5.573-4.513,7.338c-0.69,1.764-1.282,11.695-1.282,11.695
							L96.665,290.231z"/>
						<g>
							<path style="fill:#FFFFFF;" d="M101.244,272.028c-1.279,0.598-3.46,0.671-5.07,0.183c-0.014,0.011-0.029,0.022-0.044,0.033
								c-1.328,0.985-3.177,0.608-4.54-0.387c-1.692,0.663-4.019,0.742-4.374,0.751l-0.006-0.904
								c1.02-0.022,2.483-0.185,3.616-0.527c-0.939-1.019-1.139-2.12-0.511-2.87c0.789-0.95,1.79-0.888,2.421-0.408
								c0.763,0.58,1.123,1.807,0.414,2.865c-0.157,0.235-0.378,0.436-0.637,0.619c0.852,0.503,1.855,0.721,2.667,0.406
								c-0.28-0.164-0.517-0.357-0.692-0.577c-0.275-0.345-0.634-1.071,0.063-2.034c0.468-0.647,1.082-0.946,1.682-0.819
								c0.578,0.123,1.03,0.63,1.155,1.292c0.116,0.62-0.063,1.263-0.487,1.834c1.31,0.288,2.987,0.238,4.026-0.245L101.244,272.028
								z M95.569,269.364c-0.107,0.079-0.213,0.19-0.315,0.331c-0.35,0.485-0.224,0.763-0.077,0.95
								c0.176,0.223,0.467,0.413,0.832,0.566c0.416-0.431,0.61-0.92,0.525-1.368c-0.06-0.314-0.26-0.559-0.499-0.609
								C95.886,269.203,95.727,269.248,95.569,269.364z M91.747,270.816c0.299-0.157,0.532-0.336,0.668-0.54
								c0.412-0.616,0.211-1.322-0.223-1.65c-0.377-0.285-0.81-0.191-1.187,0.259c-0.375,0.45,0.044,1.202,0.515,1.706
								C91.591,270.668,91.667,270.743,91.747,270.816z"/>
						</g>
					</g>
					<g>
						<path style="fill:#FFFFFF;stroke:#000000;stroke-miterlimit:10;" d="M94.045,288.148c-3.426,0-6.355-0.896-6.852-1.173
							c0.038,0.068,0.08,0.135,0.114,0.204c0.461,0.943,1.035,8.787,2.267,11.816c0.218,0.535,0.456,0.92,0.718,1.09
							c0.707,0.459,2.185,0.947,3.752,0.873c1.567,0.074,3.044-0.415,3.752-0.873c0.262-0.17,0.5-0.554,0.718-1.09
							c1.232-3.029,1.806-10.873,2.267-11.816c0.034-0.069,0.076-0.136,0.114-0.204C100.399,287.252,97.47,288.148,94.045,288.148z"
							/>
						<path d="M94.045,291.693c1.982-0.033,4.142-0.271,6.104-0.888c0.129-0.931,0.246-1.771,0.353-2.412
							c-4.155,1.578-8.759,1.578-12.914,0c0.107,0.642,0.223,1.481,0.353,2.412C89.902,291.422,92.062,291.66,94.045,291.693z"/>
						<path d="M94.045,295.694c1.77-0.029,3.68-0.228,5.468-0.706c0.138-0.784,0.264-1.592,0.38-2.382
							c-3.79,1.287-7.906,1.287-11.696,0c0.116,0.79,0.241,1.598,0.38,2.382C90.364,295.466,92.274,295.665,94.045,295.694z"/>
						<path d="M88.948,296.863c0.188,0.828,0.396,1.565,0.627,2.132c0.037,0.092,0.076,0.173,0.115,0.255
							c1.453,0.288,2.949,0.422,4.355,0.445c1.406-0.023,2.902-0.158,4.355-0.445c0.039-0.082,0.078-0.164,0.115-0.255
							c0.231-0.567,0.439-1.304,0.627-2.132C95.816,297.832,92.272,297.832,88.948,296.863z"/>
					</g>
				</g>
				<g>
					<path style="fill:#FFFFFF;stroke:#000000;stroke-miterlimit:10;" d="M94.386,248.482h-0.037c-1.004,0-1.818-0.814-1.818-1.819
						v-8.528c0-1.004,0.814-1.819,1.818-1.819h0.037c1.004,0,1.818,0.814,1.818,1.819v8.528
						C96.204,247.668,95.391,248.482,94.386,248.482z"/>
					<path style="fill:#FFFFFF;stroke:#000000;stroke-miterlimit:10;" d="M107.469,250.84l-0.032-0.017
						c-0.885-0.475-1.218-1.577-0.743-2.462l4.03-7.516c0.475-0.885,1.577-1.218,2.462-0.743l0.033,0.018
						c0.885,0.475,1.218,1.577,0.743,2.462l-4.03,7.516C109.457,250.982,108.354,251.315,107.469,250.84z"/>
					<path style="fill:#FFFFFF;stroke:#000000;stroke-miterlimit:10;" d="M81.266,250.84l0.033-0.017
						c0.885-0.475,1.218-1.577,0.743-2.462l-4.03-7.516c-0.475-0.885-1.577-1.218-2.462-0.743l-0.032,0.018
						c-0.885,0.475-1.218,1.577-0.743,2.462l4.03,7.516C79.279,250.982,80.381,251.315,81.266,250.84z"/>
					<path style="fill:#FFFFFF;stroke:#000000;stroke-miterlimit:10;" d="M71.578,260.849l-0.008,0.036
						c-0.207,0.983-1.171,1.612-2.154,1.405l-8.346-1.754c-0.983-0.207-1.613-1.171-1.406-2.154l0.008-0.036
						c0.206-0.983,1.171-1.613,2.154-1.406l8.346,1.755C71.155,258.901,71.785,259.865,71.578,260.849z"/>
					<path style="fill:#FFFFFF;stroke:#000000;stroke-miterlimit:10;" d="M71.123,274.481l-0.01-0.035
						c-0.282-0.964-1.292-1.516-2.257-1.234l-8.184,2.398c-0.964,0.282-1.516,1.293-1.234,2.256l0.01,0.035
						c0.282,0.964,1.293,1.516,2.256,1.234l8.185-2.398C70.852,276.455,71.405,275.445,71.123,274.481z"/>
					<path style="fill:#FFFFFF;stroke:#000000;stroke-miterlimit:10;" d="M117.157,260.849l0.007,0.036
						c0.207,0.983,1.171,1.612,2.154,1.405l8.346-1.754c0.983-0.207,1.612-1.171,1.406-2.154l-0.008-0.036
						c-0.206-0.983-1.171-1.613-2.154-1.406l-8.346,1.755C117.58,258.901,116.951,259.865,117.157,260.849z"/>
					<path style="fill:#FFFFFF;stroke:#000000;stroke-miterlimit:10;" d="M117.613,274.481l0.01-0.035
						c0.282-0.964,1.292-1.516,2.256-1.234l8.184,2.398c0.964,0.282,1.516,1.293,1.234,2.256l-0.01,0.035
						c-0.282,0.964-1.293,1.516-2.257,1.234l-8.184-2.398C117.883,276.455,117.33,275.445,117.613,274.481z"/>
				</g>
			</g>
		</g>
	</g>
</g>
</svg>
