<?xml version="1.0" ?>
<!-- Uploaded to: SVG Repo, www.svgrepo.com, Generator: SVG Repo Mixer Tools -->
<svg width="800px" height="800px" viewBox="0 0 512 512" baseProfile="tiny" overflow="visible" version="1.1" xml:space="preserve" xmlns="http://www.w3.org/2000/svg" xmlns:xlink="http://www.w3.org/1999/xlink">
<g id="Layer_1"/>
<g id="Layer_2"/>
<g id="Layer_3">
<g>
<path d="M420.473,7.5H91.527c-21.009,0-38.04,16.832-38.04,37.595v239.236c0,20.763,17.031,37.595,38.04,37.595    h18.955c-8.9,11.128-27.909,38.068-31.691,77.155c-5.419,55.985,24.35,96.07,31.691,105.419    c6.991-23.535,21.55-60.967,52.965-97.781c47.876-56.104,106.279-77.234,131.771-84.794h125.256    c21.009,0,38.04-16.831,38.04-37.595V45.095C458.513,24.332,441.482,7.5,420.473,7.5z" fill="#ADC0ED"/>
<g>
<path d="M143.446,406.719c-23.577,27.629-37.659,55.605-46.174,77.794c5.494,9.902,10.681,16.767,13.209,19.986     c6.991-23.535,21.55-60.967,52.965-97.781c47.875-56.104,106.279-77.234,131.771-84.793h-20     C249.725,329.485,191.322,350.615,143.446,406.719z" fill="#99B2E9"/>
<path d="M420.473,7.5h-20c21.009,0,38.04,16.832,38.04,37.595v239.236c0,20.763-17.031,37.595-38.04,37.595h20     c21.009,0,38.04-16.832,38.04-37.595V45.095C458.513,24.332,441.482,7.5,420.473,7.5z" fill="#99B2E9"/>
</g>
<g>
<path d="M197.49,116.163c-2.035,0-4.063-0.823-5.543-2.445c-3.573-3.917-13.561-13.148-29.116-14.277     c-19.966-1.447-33.141,11.665-35.58,14.309c-2.809,3.043-7.554,3.234-10.598,0.427c-3.044-2.81-3.236-7.554-0.427-10.599     c3.257-3.531,20.866-21.035,47.69-19.098c20.939,1.521,34.328,13.884,39.112,19.129c2.792,3.061,2.574,7.805-0.487,10.596     C201.104,115.516,199.294,116.163,197.49,116.163z" fill="#5C85DA"/>
</g>
<g>
<path d="M390.264,116.163c-2.035,0-4.063-0.823-5.543-2.445c-3.573-3.917-13.561-13.148-29.116-14.277     c-19.966-1.447-33.142,11.665-35.581,14.309c-2.809,3.043-7.554,3.234-10.598,0.427c-3.044-2.81-3.236-7.554-0.427-10.599     c3.257-3.53,20.874-21.029,47.691-19.098c20.939,1.521,34.328,13.884,39.112,19.129c2.792,3.061,2.574,7.805-0.487,10.596     C393.878,115.516,392.068,116.163,390.264,116.163z" fill="#5C85DA"/>
</g>
<g>
<path d="M255.84,270.563c-1.474,0-2.945-0.033-4.428-0.1c-43.697-1.96-81.828-33.179-92.729-75.918     c-1.023-4.014,1.4-8.098,5.414-9.121c4.012-1.021,8.098,1.401,9.121,5.414c9.282,36.393,41.713,62.974,78.866,64.641     c40.152,1.771,76.596-25.392,86.701-64.656c1.032-4.013,5.121-6.424,9.132-5.395c4.012,1.032,6.427,5.121,5.394,9.133     C341.822,239.21,301.25,270.563,255.84,270.563z" fill="#5C85DA"/>
</g>
</g>
</g>
<g id="Layer_4"/>
<g id="Layer_5"/>
<g id="Layer_6"/>
<g id="Layer_7"/>
<g id="Layer_8"/>
<g id="Layer_9"/>
<g id="Layer_10"/>
<g id="Layer_11"/>
<g id="Layer_12"/>
<g id="Layer_13"/>
<g id="Layer_14"/>
<g id="Layer_15"/>
<g id="Layer_16"/>
<g id="Layer_17"/>
<g id="Layer_18"/>
<g id="Layer_19"/>
<g id="Layer_20"/>
<g id="Layer_21"/>
<g id="Layer_22"/>
<g id="Layer_23"/>
<g id="Layer_24"/>
<g id="Layer_25"/>
<g id="Layer_26"/>
<g id="Layer_27"/>
<g id="Layer_28"/>
<g id="Layer_29"/>
<g id="Layer_30"/>
<g id="Layer_31"/>
<g id="Layer_32"/>
<g id="Layer_33"/>
<g id="Layer_34"/>
<g id="Layer_35"/>
<g id="Layer_36"/>
<g id="Layer_37"/>
<g id="Layer_38"/>
<g id="Layer_39"/>
<g id="Layer_40"/>
<g id="Layer_41"/>
<g id="Layer_42"/>
<g id="Layer_43"/>
<g id="Layer_44"/>
<g id="Layer_45"/>
<g id="Layer_46"/>
<g id="Layer_47"/>
<g id="Layer_48"/>
<g id="Layer_49"/>
<g id="Layer_50">
<g>
<g>
<path d="M110.476,512c-2.276,0-4.461-1.038-5.898-2.868c-11.772-14.991-38.579-55.796-33.258-110.773     c2.819-29.126,13.583-52.316,24.469-68.933h-4.267c-25.111,0-45.541-20.229-45.541-45.095V45.096C45.981,20.229,66.41,0,91.521,0     h328.946c25.111,0,45.541,20.229,45.541,45.096v239.235c0,24.865-20.429,45.095-45.541,45.095h-124.16     c-35.269,10.61-85.596,33.453-127.162,82.162c-23.661,27.728-40.981,59.707-51.48,95.048c-0.798,2.688-3.03,4.706-5.784,5.231     C111.413,511.956,110.942,512,110.476,512z M91.521,15c-16.84,0-30.541,13.501-30.541,30.096v239.235     c0,16.595,13.7,30.095,30.541,30.095h18.955c2.883,0,5.51,1.652,6.76,4.251c1.249,2.598,0.898,5.682-0.902,7.934     c-11.937,14.926-26.846,39.74-30.083,73.193c-3.763,38.875,10.345,69.964,21.749,88.118     c11.282-31.669,27.972-60.565,49.736-86.07c44.36-51.984,98.085-76.067,135.344-87.116c0.692-0.205,1.41-0.31,2.132-0.31h125.256     c16.84,0,30.541-13.5,30.541-30.095V45.096c0-16.595-13.7-30.096-30.541-30.096H91.521z"/>
</g>
<g>
<path d="M197.484,116.163c-2.035,0-4.063-0.823-5.543-2.445c-3.573-3.917-13.561-13.148-29.116-14.277     c-19.966-1.447-33.141,11.665-35.58,14.309c-2.809,3.043-7.554,3.234-10.598,0.427c-3.044-2.81-3.236-7.554-0.427-10.599     c3.257-3.531,20.866-21.035,47.69-19.098c20.939,1.521,34.328,13.884,39.112,19.129c2.792,3.061,2.574,7.805-0.487,10.596     C201.099,115.516,199.289,116.163,197.484,116.163z"/>
</g>
<g>
<path d="M390.258,116.163c-2.035,0-4.063-0.823-5.543-2.445c-3.573-3.917-13.561-13.148-29.116-14.277     c-19.966-1.447-33.142,11.665-35.581,14.309c-2.809,3.043-7.554,3.234-10.598,0.427c-3.044-2.81-3.236-7.554-0.427-10.599     c3.257-3.53,20.874-21.029,47.691-19.098c20.939,1.521,34.328,13.884,39.112,19.129c2.792,3.061,2.574,7.805-0.487,10.596     C393.873,115.516,392.062,116.163,390.258,116.163z"/>
</g>
<g>
<path d="M255.835,270.563c-1.474,0-2.945-0.033-4.428-0.1c-43.697-1.96-81.828-33.179-92.729-75.918     c-1.023-4.014,1.4-8.098,5.414-9.121c4.012-1.021,8.098,1.401,9.121,5.414c9.282,36.393,41.713,62.974,78.866,64.641     c40.152,1.771,76.596-25.392,86.701-64.656c1.032-4.013,5.121-6.424,9.132-5.395c4.012,1.032,6.427,5.121,5.394,9.133     C341.816,239.21,301.244,270.563,255.835,270.563z"/>
</g>
</g>
</g>
</svg>